<?xml version="1.0" encoding="utf-8" standalone="no"?>
<!DOCTYPE svg PUBLIC "-//W3C//DTD SVG 1.1//EN"
  "http://www.w3.org/Graphics/SVG/1.1/DTD/svg11.dtd">
<svg xmlns:xlink="http://www.w3.org/1999/xlink" width="394.375pt" height="262.19625pt" viewBox="0 0 394.375 262.19625" xmlns="http://www.w3.org/2000/svg" version="1.1">
 <metadata>
  <rdf:RDF xmlns:dc="http://purl.org/dc/elements/1.1/" xmlns:cc="http://creativecommons.org/ns#" xmlns:rdf="http://www.w3.org/1999/02/22-rdf-syntax-ns#">
   <cc:Work>
    <dc:type rdf:resource="http://purl.org/dc/dcmitype/StillImage"/>
    <dc:date>2022-03-24T11:25:15.355458</dc:date>
    <dc:format>image/svg+xml</dc:format>
    <dc:creator>
     <cc:Agent>
      <dc:title>Matplotlib v3.5.1, https://matplotlib.org/</dc:title>
     </cc:Agent>
    </dc:creator>
   </cc:Work>
  </rdf:RDF>
 </metadata>
 <defs>
  <style type="text/css">*{stroke-linejoin: round; stroke-linecap: butt}</style>
 </defs>
 <g id="figure_1">
  <g id="patch_1">
   <path d="M 0 262.19625 
L 394.375 262.19625 
L 394.375 0 
L 0 0 
L 0 262.19625 
z
" style="fill: none"/>
  </g>
  <g id="axes_1">
   <g id="patch_2">
    <path d="M 52.375 224.64 
L 387.175 224.64 
L 387.175 7.2 
L 52.375 7.2 
z
" style="fill: #ffffff"/>
   </g>
   <g id="patch_3">
    <path d="M 67.593182 224.64 
L 67.593182 18.188971 
L 70.636818 18.188971 
L 70.636818 21.351924 
L 73.680455 21.351924 
L 73.680455 25.2518 
L 76.724091 25.2518 
L 76.724091 28.123862 
L 79.767727 28.123862 
L 79.767727 30.17949 
L 82.811364 30.17949 
L 82.811364 34.837622 
L 85.855 34.837622 
L 85.855 38.128567 
L 88.898636 38.128567 
L 88.898636 40.465389 
L 91.942273 40.465389 
L 91.942273 44.053043 
L 94.985909 44.053043 
L 94.985909 45.936076 
L 98.029545 45.936076 
L 98.029545 49.079636 
L 101.073182 49.079636 
L 101.073182 50.821102 
L 104.116818 50.821102 
L 104.116818 53.933634 
L 107.160455 53.933634 
L 107.160455 56.858056 
L 110.204091 56.858056 
L 110.204091 60.145123 
L 113.247727 60.145123 
L 113.247727 62.445099 
L 116.291364 62.445099 
L 116.291364 63.866586 
L 119.335 63.866586 
L 119.335 67.888636 
L 122.378636 67.888636 
L 122.378636 70.019896 
L 125.422273 70.019896 
L 125.422273 71.691549 
L 128.465909 71.691549 
L 128.465909 75.395558 
L 131.509545 75.395558 
L 131.509545 77.474458 
L 134.553182 77.474458 
L 134.553182 80.447362 
L 137.596818 80.447362 
L 137.596818 81.888241 
L 140.640455 81.888241 
L 140.640455 84.835935 
L 143.684091 84.835935 
L 143.684091 87.388017 
L 146.727727 87.388017 
L 146.727727 87.973677 
L 149.771364 87.973677 
L 149.771364 90.894221 
L 152.815 90.894221 
L 152.815 91.603995 
L 155.858636 91.603995 
L 155.858636 94.431453 
L 158.902273 94.431453 
L 158.902273 97.710763 
L 161.945909 97.710763 
L 161.945909 99.153581 
L 164.989545 99.153581 
L 164.989545 101.092853 
L 168.033182 101.092853 
L 168.033182 102.878923 
L 171.076818 102.878923 
L 171.076818 103.769049 
L 174.120455 103.769049 
L 174.120455 107.021208 
L 177.164091 107.021208 
L 177.164091 108.190589 
L 180.207727 108.190589 
L 180.207727 110.568137 
L 183.251364 110.568137 
L 183.251364 112.055558 
L 186.295 112.055558 
L 186.295 114.933438 
L 189.338636 114.933438 
L 189.338636 115.565641 
L 192.382273 115.565641 
L 192.382273 118.15069 
L 195.425909 118.15069 
L 195.425909 118.782893 
L 198.469545 118.782893 
L 198.469545 120.755133 
L 201.513182 120.755133 
L 201.513182 122.100988 
L 204.556818 122.100988 
L 204.556818 124.507624 
L 207.600455 124.507624 
L 207.600455 126.053224 
L 210.644091 126.053224 
L 210.644091 127.932379 
L 213.687727 127.932379 
L 213.687727 129.258841 
L 216.731364 129.258841 
L 216.731364 130.990611 
L 219.775 130.990611 
L 219.775 131.475429 
L 222.818636 131.475429 
L 222.818636 132.569179 
L 225.862273 132.569179 
L 225.862273 134.523965 
L 228.905909 134.523965 
L 228.905909 136.341063 
L 231.949545 136.341063 
L 231.949545 138.177553 
L 234.993182 138.177553 
L 234.993182 138.685643 
L 238.036818 138.685643 
L 238.036818 139.872477 
L 241.080455 139.872477 
L 241.080455 141.418077 
L 244.124091 141.418077 
L 244.124091 143.192511 
L 247.167727 143.192511 
L 247.167727 145.102694 
L 250.211364 145.102694 
L 250.211364 146.396189 
L 253.255 146.396189 
L 253.255 146.043241 
L 256.298636 146.043241 
L 256.298636 148.641866 
L 259.342273 148.641866 
L 259.342273 149.603745 
L 262.385909 149.603745 
L 262.385909 150.125409 
L 265.429545 150.125409 
L 265.429545 151.647737 
L 268.473182 151.647737 
L 268.473182 152.710459 
L 271.516818 152.710459 
L 271.516818 153.509439 
L 274.560455 153.509439 
L 274.560455 155.179152 
L 277.604091 155.179152 
L 277.604091 156.210845 
L 280.647727 156.210845 
L 280.647727 157.26193 
L 283.691364 157.26193 
L 283.691364 157.713781 
L 286.735 157.713781 
L 286.735 159.071271 
L 289.778636 159.071271 
L 289.778636 160.215442 
L 292.822273 160.215442 
L 292.822273 161.669896 
L 295.865909 161.669896 
L 295.865909 162.426212 
L 298.909545 162.426212 
L 298.909545 163.486994 
L 301.953182 163.486994 
L 301.953182 164.068775 
L 304.996818 164.068775 
L 304.996818 165.114043 
L 308.040455 165.114043 
L 308.040455 166.898173 
L 311.084091 166.898173 
L 311.084091 167.65255 
L 314.127727 167.65255 
L 314.127727 168.622186 
L 317.171364 168.622186 
L 317.171364 169.343595 
L 323.258636 169.364927 
L 323.258636 170.90277 
L 326.302273 170.90277 
L 326.302273 171.583455 
L 329.345909 171.583455 
L 329.345909 173.001063 
L 332.389545 173.001063 
L 332.389545 173.532423 
L 335.433182 173.532423 
L 335.433182 174.507877 
L 338.476818 174.507877 
L 338.476818 174.975242 
L 341.520455 174.975242 
L 341.520455 175.892517 
L 344.564091 175.892517 
L 344.564091 176.555748 
L 347.607727 176.555748 
L 347.607727 176.966874 
L 350.651364 176.966874 
L 350.651364 178.07032 
L 353.695 178.07032 
L 353.695 178.252611 
L 356.738636 178.252611 
L 356.738636 179.660523 
L 359.782273 179.660523 
L 359.782273 180.04062 
L 362.825909 180.04062 
L 362.825909 181.147945 
L 365.869545 181.147945 
L 365.869545 181.326358 
L 368.913182 181.326358 
L 368.913182 182.342536 
L 371.956818 182.342536 
L 371.956818 224.64 
L 371.956818 224.64 
" clip-path="url(#pc090826f41)" style="fill: none; stroke: #1f77b4; stroke-width: 1.5; stroke-linejoin: miter"/>
   </g>
   <g id="patch_4">
    <path d="M 67.593182 224.64 
L 67.593182 18.188971 
L 70.636818 18.188971 
L 70.636818 21.351924 
L 73.680455 21.351924 
L 73.680455 25.2518 
L 76.724091 25.2518 
L 76.724091 28.123862 
L 79.767727 28.123862 
L 79.767727 30.17949 
L 82.811364 30.17949 
L 82.811364 34.837622 
L 85.855 34.837622 
L 85.855 38.128567 
L 88.898636 38.128567 
L 88.898636 40.465389 
L 91.942273 40.465389 
L 91.942273 44.053043 
L 94.985909 44.053043 
L 94.985909 45.936076 
L 98.029545 45.936076 
L 98.029545 49.079636 
L 101.073182 49.079636 
L 101.073182 50.821102 
L 104.116818 50.821102 
L 104.116818 53.933634 
L 107.160455 53.933634 
L 107.160455 56.858056 
L 110.204091 56.858056 
L 110.204091 60.145123 
L 113.247727 60.145123 
L 113.247727 62.445099 
L 116.291364 62.445099 
L 116.291364 63.866586 
L 119.335 63.866586 
L 119.335 67.888636 
L 122.378636 67.888636 
L 122.378636 70.019896 
L 125.422273 70.019896 
L 125.422273 71.691549 
L 128.465909 71.691549 
L 128.465909 75.395558 
L 131.509545 75.395558 
L 131.509545 77.474458 
L 134.553182 77.474458 
L 134.553182 80.447362 
L 137.596818 80.447362 
L 137.596818 81.888241 
L 140.640455 81.888241 
L 140.640455 84.835935 
L 143.684091 84.835935 
L 143.684091 87.388017 
L 146.727727 87.388017 
L 146.727727 87.973677 
L 149.771364 87.973677 
L 149.771364 90.894221 
L 152.815 90.894221 
L 152.815 91.603995 
L 155.858636 91.603995 
L 155.858636 94.431453 
L 158.902273 94.431453 
L 158.902273 97.710763 
L 161.945909 97.710763 
L 161.945909 99.153581 
L 164.989545 99.153581 
L 164.989545 101.092853 
L 168.033182 101.092853 
L 168.033182 102.878923 
L 171.076818 102.878923 
L 171.076818 103.769049 
L 174.120455 103.769049 
L 174.120455 107.021208 
L 177.164091 107.021208 
L 177.164091 108.190589 
L 180.207727 108.190589 
L 180.207727 110.568137 
L 183.251364 110.568137 
L 183.251364 112.055558 
L 186.295 112.055558 
L 186.295 114.933438 
L 189.338636 114.933438 
L 189.338636 115.565641 
L 192.382273 115.565641 
L 192.382273 118.15069 
L 195.425909 118.15069 
L 195.425909 118.782893 
L 198.469545 118.782893 
L 198.469545 120.755133 
L 201.513182 120.755133 
L 201.513182 122.100988 
L 204.556818 122.100988 
L 204.556818 124.507624 
L 207.600455 124.507624 
L 207.600455 126.053224 
L 210.644091 126.053224 
L 210.644091 127.932379 
L 213.687727 127.932379 
L 213.687727 129.258841 
L 216.731364 129.258841 
L 216.731364 130.990611 
L 219.775 130.990611 
L 219.775 131.475429 
L 222.818636 131.475429 
L 222.818636 132.569179 
L 225.862273 132.569179 
L 225.862273 134.523965 
L 228.905909 134.523965 
L 228.905909 136.341063 
L 231.949545 136.341063 
L 231.949545 138.177553 
L 234.993182 138.177553 
L 234.993182 138.685643 
L 238.036818 138.685643 
L 238.036818 139.872477 
L 241.080455 139.872477 
L 241.080455 141.418077 
L 244.124091 141.418077 
L 244.124091 143.192511 
L 247.167727 143.192511 
L 247.167727 145.102694 
L 250.211364 145.102694 
L 250.211364 146.396189 
L 253.255 146.396189 
L 253.255 146.043241 
L 256.298636 146.043241 
L 256.298636 148.641866 
L 259.342273 148.641866 
L 259.342273 149.603745 
L 262.385909 149.603745 
L 262.385909 150.125409 
L 265.429545 150.125409 
L 265.429545 151.647737 
L 268.473182 151.647737 
L 268.473182 152.710459 
L 271.516818 152.710459 
L 271.516818 153.509439 
L 274.560455 153.509439 
L 274.560455 155.179152 
L 277.604091 155.179152 
L 277.604091 156.210845 
L 280.647727 156.210845 
L 280.647727 157.26193 
L 283.691364 157.26193 
L 283.691364 157.713781 
L 286.735 157.713781 
L 286.735 159.071271 
L 289.778636 159.071271 
L 289.778636 160.215442 
L 292.822273 160.215442 
L 292.822273 161.669896 
L 295.865909 161.669896 
L 295.865909 162.426212 
L 298.909545 162.426212 
L 298.909545 163.486994 
L 301.953182 163.486994 
L 301.953182 164.068775 
L 304.996818 164.068775 
L 304.996818 165.114043 
L 308.040455 165.114043 
L 308.040455 166.898173 
L 311.084091 166.898173 
L 311.084091 167.65255 
L 314.127727 167.65255 
L 314.127727 168.622186 
L 317.171364 168.622186 
L 317.171364 169.343595 
L 323.258636 169.364927 
L 323.258636 170.90277 
L 326.302273 170.90277 
L 326.302273 171.583455 
L 329.345909 171.583455 
L 329.345909 173.001063 
L 332.389545 173.001063 
L 332.389545 173.532423 
L 335.433182 173.532423 
L 335.433182 174.507877 
L 338.476818 174.507877 
L 338.476818 174.975242 
L 341.520455 174.975242 
L 341.520455 175.892517 
L 344.564091 175.892517 
L 344.564091 176.555748 
L 347.607727 176.555748 
L 347.607727 176.966874 
L 350.651364 176.966874 
L 350.651364 178.07032 
L 353.695 178.07032 
L 353.695 178.252611 
L 356.738636 178.252611 
L 356.738636 179.660523 
L 359.782273 179.660523 
L 359.782273 180.04062 
L 362.825909 180.04062 
L 362.825909 181.147945 
L 365.869545 181.147945 
L 365.869545 181.326358 
L 368.913182 181.326358 
L 368.913182 182.342536 
L 371.956818 182.342536 
L 371.956818 224.64 
L 371.956818 224.64 
" clip-path="url(#pc090826f41)" style="fill: none; stroke: #ff7f0e; stroke-width: 1.5; stroke-linejoin: miter"/>
   </g>
   <g id="matplotlib.axis_1">
    <g id="xtick_1">
     <g id="line2d_1">
      <defs>
       <path id="mce7384fd48" d="M 0 0 
L 0 3.5 
" style="stroke: #000000; stroke-width: 0.8"/>
      </defs>
      <g>
       <use xlink:href="#mce7384fd48" x="67.593182" y="224.64" style="stroke: #000000; stroke-width: 0.8"/>
      </g>
     </g>
     <g id="text_1">
      <!-- 20 -->
      <g transform="translate(61.230682 239.238437)scale(0.1 -0.1)">
       <defs>
        <path id="DejaVuSans-32" d="M 1228 531 
L 3431 531 
L 3431 0 
L 469 0 
L 469 531 
Q 828 903 1448 1529 
Q 2069 2156 2228 2338 
Q 2531 2678 2651 2914 
Q 2772 3150 2772 3378 
Q 2772 3750 2511 3984 
Q 2250 4219 1831 4219 
Q 1534 4219 1204 4116 
Q 875 4013 500 3803 
L 500 4441 
Q 881 4594 1212 4672 
Q 1544 4750 1819 4750 
Q 2544 4750 2975 4387 
Q 3406 4025 3406 3419 
Q 3406 3131 3298 2873 
Q 3191 2616 2906 2266 
Q 2828 2175 2409 1742 
Q 1991 1309 1228 531 
z
" transform="scale(0.015625)"/>
        <path id="DejaVuSans-30" d="M 2034 4250 
Q 1547 4250 1301 3770 
Q 1056 3291 1056 2328 
Q 1056 1369 1301 889 
Q 1547 409 2034 409 
Q 2525 409 2770 889 
Q 3016 1369 3016 2328 
Q 3016 3291 2770 3770 
Q 2525 4250 2034 4250 
z
M 2034 4750 
Q 2819 4750 3233 4129 
Q 3647 3509 3647 2328 
Q 3647 1150 3233 529 
Q 2819 -91 2034 -91 
Q 1250 -91 836 529 
Q 422 1150 422 2328 
Q 422 3509 836 4129 
Q 1250 4750 2034 4750 
z
" transform="scale(0.015625)"/>
       </defs>
       <use xlink:href="#DejaVuSans-32"/>
       <use xlink:href="#DejaVuSans-30" x="63.623047"/>
      </g>
     </g>
    </g>
    <g id="xtick_2">
     <g id="line2d_2">
      <g>
       <use xlink:href="#mce7384fd48" x="105.638636" y="224.64" style="stroke: #000000; stroke-width: 0.8"/>
      </g>
     </g>
     <g id="text_2">
      <!-- 30 -->
      <g transform="translate(99.276136 239.238437)scale(0.1 -0.1)">
       <defs>
        <path id="DejaVuSans-33" d="M 2597 2516 
Q 3050 2419 3304 2112 
Q 3559 1806 3559 1356 
Q 3559 666 3084 287 
Q 2609 -91 1734 -91 
Q 1441 -91 1130 -33 
Q 819 25 488 141 
L 488 750 
Q 750 597 1062 519 
Q 1375 441 1716 441 
Q 2309 441 2620 675 
Q 2931 909 2931 1356 
Q 2931 1769 2642 2001 
Q 2353 2234 1838 2234 
L 1294 2234 
L 1294 2753 
L 1863 2753 
Q 2328 2753 2575 2939 
Q 2822 3125 2822 3475 
Q 2822 3834 2567 4026 
Q 2313 4219 1838 4219 
Q 1578 4219 1281 4162 
Q 984 4106 628 3988 
L 628 4550 
Q 988 4650 1302 4700 
Q 1616 4750 1894 4750 
Q 2613 4750 3031 4423 
Q 3450 4097 3450 3541 
Q 3450 3153 3228 2886 
Q 3006 2619 2597 2516 
z
" transform="scale(0.015625)"/>
       </defs>
       <use xlink:href="#DejaVuSans-33"/>
       <use xlink:href="#DejaVuSans-30" x="63.623047"/>
      </g>
     </g>
    </g>
    <g id="xtick_3">
     <g id="line2d_3">
      <g>
       <use xlink:href="#mce7384fd48" x="143.684091" y="224.64" style="stroke: #000000; stroke-width: 0.8"/>
      </g>
     </g>
     <g id="text_3">
      <!-- 40 -->
      <g transform="translate(137.321591 239.238437)scale(0.1 -0.1)">
       <defs>
        <path id="DejaVuSans-34" d="M 2419 4116 
L 825 1625 
L 2419 1625 
L 2419 4116 
z
M 2253 4666 
L 3047 4666 
L 3047 1625 
L 3713 1625 
L 3713 1100 
L 3047 1100 
L 3047 0 
L 2419 0 
L 2419 1100 
L 313 1100 
L 313 1709 
L 2253 4666 
z
" transform="scale(0.015625)"/>
       </defs>
       <use xlink:href="#DejaVuSans-34"/>
       <use xlink:href="#DejaVuSans-30" x="63.623047"/>
      </g>
     </g>
    </g>
    <g id="xtick_4">
     <g id="line2d_4">
      <g>
       <use xlink:href="#mce7384fd48" x="181.729545" y="224.64" style="stroke: #000000; stroke-width: 0.8"/>
      </g>
     </g>
     <g id="text_4">
      <!-- 50 -->
      <g transform="translate(175.367045 239.238437)scale(0.1 -0.1)">
       <defs>
        <path id="DejaVuSans-35" d="M 691 4666 
L 3169 4666 
L 3169 4134 
L 1269 4134 
L 1269 2991 
Q 1406 3038 1543 3061 
Q 1681 3084 1819 3084 
Q 2600 3084 3056 2656 
Q 3513 2228 3513 1497 
Q 3513 744 3044 326 
Q 2575 -91 1722 -91 
Q 1428 -91 1123 -41 
Q 819 9 494 109 
L 494 744 
Q 775 591 1075 516 
Q 1375 441 1709 441 
Q 2250 441 2565 725 
Q 2881 1009 2881 1497 
Q 2881 1984 2565 2268 
Q 2250 2553 1709 2553 
Q 1456 2553 1204 2497 
Q 953 2441 691 2322 
L 691 4666 
z
" transform="scale(0.015625)"/>
       </defs>
       <use xlink:href="#DejaVuSans-35"/>
       <use xlink:href="#DejaVuSans-30" x="63.623047"/>
      </g>
     </g>
    </g>
    <g id="xtick_5">
     <g id="line2d_5">
      <g>
       <use xlink:href="#mce7384fd48" x="219.775" y="224.64" style="stroke: #000000; stroke-width: 0.8"/>
      </g>
     </g>
     <g id="text_5">
      <!-- 60 -->
      <g transform="translate(213.4125 239.238437)scale(0.1 -0.1)">
       <defs>
        <path id="DejaVuSans-36" d="M 2113 2584 
Q 1688 2584 1439 2293 
Q 1191 2003 1191 1497 
Q 1191 994 1439 701 
Q 1688 409 2113 409 
Q 2538 409 2786 701 
Q 3034 994 3034 1497 
Q 3034 2003 2786 2293 
Q 2538 2584 2113 2584 
z
M 3366 4563 
L 3366 3988 
Q 3128 4100 2886 4159 
Q 2644 4219 2406 4219 
Q 1781 4219 1451 3797 
Q 1122 3375 1075 2522 
Q 1259 2794 1537 2939 
Q 1816 3084 2150 3084 
Q 2853 3084 3261 2657 
Q 3669 2231 3669 1497 
Q 3669 778 3244 343 
Q 2819 -91 2113 -91 
Q 1303 -91 875 529 
Q 447 1150 447 2328 
Q 447 3434 972 4092 
Q 1497 4750 2381 4750 
Q 2619 4750 2861 4703 
Q 3103 4656 3366 4563 
z
" transform="scale(0.015625)"/>
       </defs>
       <use xlink:href="#DejaVuSans-36"/>
       <use xlink:href="#DejaVuSans-30" x="63.623047"/>
      </g>
     </g>
    </g>
    <g id="xtick_6">
     <g id="line2d_6">
      <g>
       <use xlink:href="#mce7384fd48" x="257.820455" y="224.64" style="stroke: #000000; stroke-width: 0.8"/>
      </g>
     </g>
     <g id="text_6">
      <!-- 70 -->
      <g transform="translate(251.457955 239.238437)scale(0.1 -0.1)">
       <defs>
        <path id="DejaVuSans-37" d="M 525 4666 
L 3525 4666 
L 3525 4397 
L 1831 0 
L 1172 0 
L 2766 4134 
L 525 4134 
L 525 4666 
z
" transform="scale(0.015625)"/>
       </defs>
       <use xlink:href="#DejaVuSans-37"/>
       <use xlink:href="#DejaVuSans-30" x="63.623047"/>
      </g>
     </g>
    </g>
    <g id="xtick_7">
     <g id="line2d_7">
      <g>
       <use xlink:href="#mce7384fd48" x="295.865909" y="224.64" style="stroke: #000000; stroke-width: 0.8"/>
      </g>
     </g>
     <g id="text_7">
      <!-- 80 -->
      <g transform="translate(289.503409 239.238437)scale(0.1 -0.1)">
       <defs>
        <path id="DejaVuSans-38" d="M 2034 2216 
Q 1584 2216 1326 1975 
Q 1069 1734 1069 1313 
Q 1069 891 1326 650 
Q 1584 409 2034 409 
Q 2484 409 2743 651 
Q 3003 894 3003 1313 
Q 3003 1734 2745 1975 
Q 2488 2216 2034 2216 
z
M 1403 2484 
Q 997 2584 770 2862 
Q 544 3141 544 3541 
Q 544 4100 942 4425 
Q 1341 4750 2034 4750 
Q 2731 4750 3128 4425 
Q 3525 4100 3525 3541 
Q 3525 3141 3298 2862 
Q 3072 2584 2669 2484 
Q 3125 2378 3379 2068 
Q 3634 1759 3634 1313 
Q 3634 634 3220 271 
Q 2806 -91 2034 -91 
Q 1263 -91 848 271 
Q 434 634 434 1313 
Q 434 1759 690 2068 
Q 947 2378 1403 2484 
z
M 1172 3481 
Q 1172 3119 1398 2916 
Q 1625 2713 2034 2713 
Q 2441 2713 2670 2916 
Q 2900 3119 2900 3481 
Q 2900 3844 2670 4047 
Q 2441 4250 2034 4250 
Q 1625 4250 1398 4047 
Q 1172 3844 1172 3481 
z
" transform="scale(0.015625)"/>
       </defs>
       <use xlink:href="#DejaVuSans-38"/>
       <use xlink:href="#DejaVuSans-30" x="63.623047"/>
      </g>
     </g>
    </g>
    <g id="xtick_8">
     <g id="line2d_8">
      <g>
       <use xlink:href="#mce7384fd48" x="333.911364" y="224.64" style="stroke: #000000; stroke-width: 0.8"/>
      </g>
     </g>
     <g id="text_8">
      <!-- 90 -->
      <g transform="translate(327.548864 239.238437)scale(0.1 -0.1)">
       <defs>
        <path id="DejaVuSans-39" d="M 703 97 
L 703 672 
Q 941 559 1184 500 
Q 1428 441 1663 441 
Q 2288 441 2617 861 
Q 2947 1281 2994 2138 
Q 2813 1869 2534 1725 
Q 2256 1581 1919 1581 
Q 1219 1581 811 2004 
Q 403 2428 403 3163 
Q 403 3881 828 4315 
Q 1253 4750 1959 4750 
Q 2769 4750 3195 4129 
Q 3622 3509 3622 2328 
Q 3622 1225 3098 567 
Q 2575 -91 1691 -91 
Q 1453 -91 1209 -44 
Q 966 3 703 97 
z
M 1959 2075 
Q 2384 2075 2632 2365 
Q 2881 2656 2881 3163 
Q 2881 3666 2632 3958 
Q 2384 4250 1959 4250 
Q 1534 4250 1286 3958 
Q 1038 3666 1038 3163 
Q 1038 2656 1286 2365 
Q 1534 2075 1959 2075 
z
" transform="scale(0.015625)"/>
       </defs>
       <use xlink:href="#DejaVuSans-39"/>
       <use xlink:href="#DejaVuSans-30" x="63.623047"/>
      </g>
     </g>
    </g>
    <g id="xtick_9">
     <g id="line2d_9">
      <g>
       <use xlink:href="#mce7384fd48" x="371.956818" y="224.64" style="stroke: #000000; stroke-width: 0.8"/>
      </g>
     </g>
     <g id="text_9">
      <!-- 100 -->
      <g transform="translate(362.413068 239.238437)scale(0.1 -0.1)">
       <defs>
        <path id="DejaVuSans-31" d="M 794 531 
L 1825 531 
L 1825 4091 
L 703 3866 
L 703 4441 
L 1819 4666 
L 2450 4666 
L 2450 531 
L 3481 531 
L 3481 0 
L 794 0 
L 794 531 
z
" transform="scale(0.015625)"/>
       </defs>
       <use xlink:href="#DejaVuSans-31"/>
       <use xlink:href="#DejaVuSans-30" x="63.623047"/>
       <use xlink:href="#DejaVuSans-30" x="127.246094"/>
      </g>
     </g>
    </g>
    <g id="text_10">
     <!-- pt -->
     <g transform="translate(214.640625 252.916562)scale(0.1 -0.1)">
      <defs>
       <path id="DejaVuSans-70" d="M 1159 525 
L 1159 -1331 
L 581 -1331 
L 581 3500 
L 1159 3500 
L 1159 2969 
Q 1341 3281 1617 3432 
Q 1894 3584 2278 3584 
Q 2916 3584 3314 3078 
Q 3713 2572 3713 1747 
Q 3713 922 3314 415 
Q 2916 -91 2278 -91 
Q 1894 -91 1617 61 
Q 1341 213 1159 525 
z
M 3116 1747 
Q 3116 2381 2855 2742 
Q 2594 3103 2138 3103 
Q 1681 3103 1420 2742 
Q 1159 2381 1159 1747 
Q 1159 1113 1420 752 
Q 1681 391 2138 391 
Q 2594 391 2855 752 
Q 3116 1113 3116 1747 
z
" transform="scale(0.015625)"/>
       <path id="DejaVuSans-74" d="M 1172 4494 
L 1172 3500 
L 2356 3500 
L 2356 3053 
L 1172 3053 
L 1172 1153 
Q 1172 725 1289 603 
Q 1406 481 1766 481 
L 2356 481 
L 2356 0 
L 1766 0 
Q 1100 0 847 248 
Q 594 497 594 1153 
L 594 3053 
L 172 3053 
L 172 3500 
L 594 3500 
L 594 4494 
L 1172 4494 
z
" transform="scale(0.015625)"/>
      </defs>
      <use xlink:href="#DejaVuSans-70"/>
      <use xlink:href="#DejaVuSans-74" x="63.476562"/>
     </g>
    </g>
   </g>
   <g id="matplotlib.axis_2">
    <g id="ytick_1">
     <g id="line2d_10">
      <defs>
       <path id="maf28c37cf4" d="M 0 0 
L -3.5 0 
" style="stroke: #000000; stroke-width: 0.8"/>
      </defs>
      <g>
       <use xlink:href="#maf28c37cf4" x="52.375" y="224.64" style="stroke: #000000; stroke-width: 0.8"/>
      </g>
     </g>
     <g id="text_11">
      <!-- 0 -->
      <g transform="translate(39.0125 228.439219)scale(0.1 -0.1)">
       <use xlink:href="#DejaVuSans-30"/>
      </g>
     </g>
    </g>
    <g id="ytick_2">
     <g id="line2d_11">
      <g>
       <use xlink:href="#maf28c37cf4" x="52.375" y="185.854558" style="stroke: #000000; stroke-width: 0.8"/>
      </g>
     </g>
     <g id="text_12">
      <!-- 20000 -->
      <g transform="translate(13.5625 189.653777)scale(0.1 -0.1)">
       <use xlink:href="#DejaVuSans-32"/>
       <use xlink:href="#DejaVuSans-30" x="63.623047"/>
       <use xlink:href="#DejaVuSans-30" x="127.246094"/>
       <use xlink:href="#DejaVuSans-30" x="190.869141"/>
       <use xlink:href="#DejaVuSans-30" x="254.492188"/>
      </g>
     </g>
    </g>
    <g id="ytick_3">
     <g id="line2d_12">
      <g>
       <use xlink:href="#maf28c37cf4" x="52.375" y="147.069116" style="stroke: #000000; stroke-width: 0.8"/>
      </g>
     </g>
     <g id="text_13">
      <!-- 40000 -->
      <g transform="translate(13.5625 150.868335)scale(0.1 -0.1)">
       <use xlink:href="#DejaVuSans-34"/>
       <use xlink:href="#DejaVuSans-30" x="63.623047"/>
       <use xlink:href="#DejaVuSans-30" x="127.246094"/>
       <use xlink:href="#DejaVuSans-30" x="190.869141"/>
       <use xlink:href="#DejaVuSans-30" x="254.492188"/>
      </g>
     </g>
    </g>
    <g id="ytick_4">
     <g id="line2d_13">
      <g>
       <use xlink:href="#maf28c37cf4" x="52.375" y="108.283674" style="stroke: #000000; stroke-width: 0.8"/>
      </g>
     </g>
     <g id="text_14">
      <!-- 60000 -->
      <g transform="translate(13.5625 112.082893)scale(0.1 -0.1)">
       <use xlink:href="#DejaVuSans-36"/>
       <use xlink:href="#DejaVuSans-30" x="63.623047"/>
       <use xlink:href="#DejaVuSans-30" x="127.246094"/>
       <use xlink:href="#DejaVuSans-30" x="190.869141"/>
       <use xlink:href="#DejaVuSans-30" x="254.492188"/>
      </g>
     </g>
    </g>
    <g id="ytick_5">
     <g id="line2d_14">
      <g>
       <use xlink:href="#maf28c37cf4" x="52.375" y="69.498232" style="stroke: #000000; stroke-width: 0.8"/>
      </g>
     </g>
     <g id="text_15">
      <!-- 80000 -->
      <g transform="translate(13.5625 73.297451)scale(0.1 -0.1)">
       <use xlink:href="#DejaVuSans-38"/>
       <use xlink:href="#DejaVuSans-30" x="63.623047"/>
       <use xlink:href="#DejaVuSans-30" x="127.246094"/>
       <use xlink:href="#DejaVuSans-30" x="190.869141"/>
       <use xlink:href="#DejaVuSans-30" x="254.492188"/>
      </g>
     </g>
    </g>
    <g id="ytick_6">
     <g id="line2d_15">
      <g>
       <use xlink:href="#maf28c37cf4" x="52.375" y="30.71279" style="stroke: #000000; stroke-width: 0.8"/>
      </g>
     </g>
     <g id="text_16">
      <!-- 100000 -->
      <g transform="translate(7.2 34.512009)scale(0.1 -0.1)">
       <use xlink:href="#DejaVuSans-31"/>
       <use xlink:href="#DejaVuSans-30" x="63.623047"/>
       <use xlink:href="#DejaVuSans-30" x="127.246094"/>
       <use xlink:href="#DejaVuSans-30" x="190.869141"/>
       <use xlink:href="#DejaVuSans-30" x="254.492188"/>
       <use xlink:href="#DejaVuSans-30" x="318.115234"/>
      </g>
     </g>
    </g>
   </g>
   <g id="LineCollection_1">
    <path d="M 69.115 18.821714 
L 69.115 17.554286 
" clip-path="url(#pc090826f41)" style="fill: none; stroke: #1f77b4; stroke-width: 1.5"/>
    <path d="M 72.158636 21.979801 
L 72.158636 20.722104 
" clip-path="url(#pc090826f41)" style="fill: none; stroke: #1f77b4; stroke-width: 1.5"/>
    <path d="M 75.202273 25.873625 
L 75.202273 24.628032 
" clip-path="url(#pc090826f41)" style="fill: none; stroke: #1f77b4; stroke-width: 1.5"/>
    <path d="M 78.245909 28.741192 
L 78.245909 27.504589 
" clip-path="url(#pc090826f41)" style="fill: none; stroke: #1f77b4; stroke-width: 1.5"/>
    <path d="M 81.289545 30.793583 
L 81.289545 29.563455 
" clip-path="url(#pc090826f41)" style="fill: none; stroke: #1f77b4; stroke-width: 1.5"/>
    <path d="M 84.333182 35.444315 
L 84.333182 34.228986 
" clip-path="url(#pc090826f41)" style="fill: none; stroke: #1f77b4; stroke-width: 1.5"/>
    <path d="M 87.376818 38.729977 
L 87.376818 37.525213 
" clip-path="url(#pc090826f41)" style="fill: none; stroke: #1f77b4; stroke-width: 1.5"/>
    <path d="M 90.420455 41.063021 
L 90.420455 39.865815 
" clip-path="url(#pc090826f41)" style="fill: none; stroke: #1f77b4; stroke-width: 1.5"/>
    <path d="M 93.464091 44.644825 
L 93.464091 43.459318 
" clip-path="url(#pc090826f41)" style="fill: none; stroke: #1f77b4; stroke-width: 1.5"/>
    <path d="M 96.507727 46.524765 
L 96.507727 45.345445 
" clip-path="url(#pc090826f41)" style="fill: none; stroke: #1f77b4; stroke-width: 1.5"/>
    <path d="M 99.551364 49.663124 
L 99.551364 48.494206 
" clip-path="url(#pc090826f41)" style="fill: none; stroke: #1f77b4; stroke-width: 1.5"/>
    <path d="M 102.595 51.401689 
L 102.595 50.238573 
" clip-path="url(#pc090826f41)" style="fill: none; stroke: #1f77b4; stroke-width: 1.5"/>
    <path d="M 105.638636 54.508999 
L 105.638636 53.356327 
" clip-path="url(#pc090826f41)" style="fill: none; stroke: #1f77b4; stroke-width: 1.5"/>
    <path d="M 108.682273 57.428472 
L 108.682273 56.285699 
" clip-path="url(#pc090826f41)" style="fill: none; stroke: #1f77b4; stroke-width: 1.5"/>
    <path d="M 111.725909 60.709923 
L 111.725909 59.57838 
" clip-path="url(#pc090826f41)" style="fill: none; stroke: #1f77b4; stroke-width: 1.5"/>
    <path d="M 114.769545 63.005937 
L 114.769545 61.882319 
" clip-path="url(#pc090826f41)" style="fill: none; stroke: #1f77b4; stroke-width: 1.5"/>
    <path d="M 117.813182 64.42496 
L 117.813182 63.306269 
" clip-path="url(#pc090826f41)" style="fill: none; stroke: #1f77b4; stroke-width: 1.5"/>
    <path d="M 120.856818 68.439982 
L 120.856818 67.335348 
" clip-path="url(#pc090826f41)" style="fill: none; stroke: #1f77b4; stroke-width: 1.5"/>
    <path d="M 123.900455 70.567481 
L 123.900455 69.470369 
" clip-path="url(#pc090826f41)" style="fill: none; stroke: #1f77b4; stroke-width: 1.5"/>
    <path d="M 126.944091 72.236165 
L 126.944091 71.144989 
" clip-path="url(#pc090826f41)" style="fill: none; stroke: #1f77b4; stroke-width: 1.5"/>
    <path d="M 129.987727 75.93354 
L 129.987727 74.855634 
" clip-path="url(#pc090826f41)" style="fill: none; stroke: #1f77b4; stroke-width: 1.5"/>
    <path d="M 133.031364 78.00868 
L 133.031364 76.938294 
" clip-path="url(#pc090826f41)" style="fill: none; stroke: #1f77b4; stroke-width: 1.5"/>
    <path d="M 136.075 80.97616 
L 136.075 79.916621 
" clip-path="url(#pc090826f41)" style="fill: none; stroke: #1f77b4; stroke-width: 1.5"/>
    <path d="M 139.118636 82.414391 
L 139.118636 81.360149 
" clip-path="url(#pc090826f41)" style="fill: none; stroke: #1f77b4; stroke-width: 1.5"/>
    <path d="M 142.162273 85.356624 
L 142.162273 84.313303 
" clip-path="url(#pc090826f41)" style="fill: none; stroke: #1f77b4; stroke-width: 1.5"/>
    <path d="M 145.205909 87.903932 
L 145.205909 86.87016 
" clip-path="url(#pc090826f41)" style="fill: none; stroke: #1f77b4; stroke-width: 1.5"/>
    <path d="M 148.249545 88.48849 
L 148.249545 87.456922 
" clip-path="url(#pc090826f41)" style="fill: none; stroke: #1f77b4; stroke-width: 1.5"/>
    <path d="M 151.293182 91.403503 
L 151.293182 90.382996 
" clip-path="url(#pc090826f41)" style="fill: none; stroke: #1f77b4; stroke-width: 1.5"/>
    <path d="M 154.336818 92.111924 
L 154.336818 91.094123 
" clip-path="url(#pc090826f41)" style="fill: none; stroke: #1f77b4; stroke-width: 1.5"/>
    <path d="M 157.380455 94.933956 
L 157.380455 93.927008 
" clip-path="url(#pc090826f41)" style="fill: none; stroke: #1f77b4; stroke-width: 1.5"/>
    <path d="M 160.424091 98.206897 
L 160.424091 97.212685 
" clip-path="url(#pc090826f41)" style="fill: none; stroke: #1f77b4; stroke-width: 1.5"/>
    <path d="M 163.467727 99.646887 
L 163.467727 98.658332 
" clip-path="url(#pc090826f41)" style="fill: none; stroke: #1f77b4; stroke-width: 1.5"/>
    <path d="M 166.511364 101.582333 
L 166.511364 100.60143 
" clip-path="url(#pc090826f41)" style="fill: none; stroke: #1f77b4; stroke-width: 1.5"/>
    <path d="M 169.555 103.364851 
L 169.555 102.391051 
" clip-path="url(#pc090826f41)" style="fill: none; stroke: #1f77b4; stroke-width: 1.5"/>
    <path d="M 172.598636 104.253198 
L 172.598636 103.282956 
" clip-path="url(#pc090826f41)" style="fill: none; stroke: #1f77b4; stroke-width: 1.5"/>
    <path d="M 175.642273 107.498799 
L 175.642273 106.541673 
" clip-path="url(#pc090826f41)" style="fill: none; stroke: #1f77b4; stroke-width: 1.5"/>
    <path d="M 178.685909 108.6658 
L 178.685909 107.713434 
" clip-path="url(#pc090826f41)" style="fill: none; stroke: #1f77b4; stroke-width: 1.5"/>
    <path d="M 181.729545 111.038472 
L 181.729545 110.095858 
" clip-path="url(#pc090826f41)" style="fill: none; stroke: #1f77b4; stroke-width: 1.5"/>
    <path d="M 184.773182 112.522817 
L 184.773182 111.586356 
" clip-path="url(#pc090826f41)" style="fill: none; stroke: #1f77b4; stroke-width: 1.5"/>
    <path d="M 187.816818 115.394686 
L 187.816818 114.470247 
" clip-path="url(#pc090826f41)" style="fill: none; stroke: #1f77b4; stroke-width: 1.5"/>
    <path d="M 190.860455 116.025558 
L 190.860455 115.10378 
" clip-path="url(#pc090826f41)" style="fill: none; stroke: #1f77b4; stroke-width: 1.5"/>
    <path d="M 193.904091 118.605125 
L 193.904091 117.694313 
" clip-path="url(#pc090826f41)" style="fill: none; stroke: #1f77b4; stroke-width: 1.5"/>
    <path d="M 196.947727 119.235976 
L 196.947727 118.327866 
" clip-path="url(#pc090826f41)" style="fill: none; stroke: #1f77b4; stroke-width: 1.5"/>
    <path d="M 199.991364 121.203976 
L 199.991364 120.304347 
" clip-path="url(#pc090826f41)" style="fill: none; stroke: #1f77b4; stroke-width: 1.5"/>
    <path d="M 203.035 122.546913 
L 203.035 121.653118 
" clip-path="url(#pc090826f41)" style="fill: none; stroke: #1f77b4; stroke-width: 1.5"/>
    <path d="M 206.078636 124.948286 
L 206.078636 124.065019 
" clip-path="url(#pc090826f41)" style="fill: none; stroke: #1f77b4; stroke-width: 1.5"/>
    <path d="M 209.122273 126.490472 
L 209.122273 125.614033 
" clip-path="url(#pc090826f41)" style="fill: none; stroke: #1f77b4; stroke-width: 1.5"/>
    <path d="M 212.165909 128.365439 
L 212.165909 127.497375 
" clip-path="url(#pc090826f41)" style="fill: none; stroke: #1f77b4; stroke-width: 1.5"/>
    <path d="M 215.209545 129.688921 
L 215.209545 128.826817 
" clip-path="url(#pc090826f41)" style="fill: none; stroke: #1f77b4; stroke-width: 1.5"/>
    <path d="M 218.253182 131.416769 
L 218.253182 130.56251 
" clip-path="url(#pc090826f41)" style="fill: none; stroke: #1f77b4; stroke-width: 1.5"/>
    <path d="M 221.296818 131.900482 
L 221.296818 131.048432 
" clip-path="url(#pc090826f41)" style="fill: none; stroke: #1f77b4; stroke-width: 1.5"/>
    <path d="M 224.340455 132.991729 
L 224.340455 132.144684 
" clip-path="url(#pc090826f41)" style="fill: none; stroke: #1f77b4; stroke-width: 1.5"/>
    <path d="M 227.384091 134.942006 
L 227.384091 134.10398 
" clip-path="url(#pc090826f41)" style="fill: none; stroke: #1f77b4; stroke-width: 1.5"/>
    <path d="M 230.427727 136.754868 
L 230.427727 135.925314 
" clip-path="url(#pc090826f41)" style="fill: none; stroke: #1f77b4; stroke-width: 1.5"/>
    <path d="M 233.471364 138.587032 
L 233.471364 137.766131 
" clip-path="url(#pc090826f41)" style="fill: none; stroke: #1f77b4; stroke-width: 1.5"/>
    <path d="M 236.515 139.093917 
L 236.515 138.275425 
" clip-path="url(#pc090826f41)" style="fill: none; stroke: #1f77b4; stroke-width: 1.5"/>
    <path d="M 239.558636 140.277923 
L 239.558636 139.465088 
" clip-path="url(#pc090826f41)" style="fill: none; stroke: #1f77b4; stroke-width: 1.5"/>
    <path d="M 242.602273 141.819809 
L 242.602273 141.014401 
" clip-path="url(#pc090826f41)" style="fill: none; stroke: #1f77b4; stroke-width: 1.5"/>
    <path d="M 245.645909 143.589937 
L 245.645909 142.793141 
" clip-path="url(#pc090826f41)" style="fill: none; stroke: #1f77b4; stroke-width: 1.5"/>
    <path d="M 248.689545 145.495432 
L 248.689545 144.708012 
" clip-path="url(#pc090826f41)" style="fill: none; stroke: #1f77b4; stroke-width: 1.5"/>
    <path d="M 251.733182 146.78572 
L 251.733182 146.004713 
" clip-path="url(#pc090826f41)" style="fill: none; stroke: #1f77b4; stroke-width: 1.5"/>
    <path d="M 254.776818 146.43365 
L 254.776818 145.650888 
" clip-path="url(#pc090826f41)" style="fill: none; stroke: #1f77b4; stroke-width: 1.5"/>
    <path d="M 257.820455 149.025766 
L 257.820455 148.256021 
" clip-path="url(#pc090826f41)" style="fill: none; stroke: #1f77b4; stroke-width: 1.5"/>
    <path d="M 260.864091 149.985208 
L 260.864091 149.220337 
" clip-path="url(#pc090826f41)" style="fill: none; stroke: #1f77b4; stroke-width: 1.5"/>
    <path d="M 263.907727 150.505544 
L 263.907727 149.743329 
" clip-path="url(#pc090826f41)" style="fill: none; stroke: #1f77b4; stroke-width: 1.5"/>
    <path d="M 266.951364 152.02397 
L 266.951364 151.269561 
" clip-path="url(#pc090826f41)" style="fill: none; stroke: #1f77b4; stroke-width: 1.5"/>
    <path d="M 269.995 153.083942 
L 269.995 152.335031 
" clip-path="url(#pc090826f41)" style="fill: none; stroke: #1f77b4; stroke-width: 1.5"/>
    <path d="M 273.038636 153.880842 
L 273.038636 153.136091 
" clip-path="url(#pc090826f41)" style="fill: none; stroke: #1f77b4; stroke-width: 1.5"/>
    <path d="M 276.082273 155.54617 
L 276.082273 154.810189 
" clip-path="url(#pc090826f41)" style="fill: none; stroke: #1f77b4; stroke-width: 1.5"/>
    <path d="M 279.125909 156.575127 
L 279.125909 155.844618 
" clip-path="url(#pc090826f41)" style="fill: none; stroke: #1f77b4; stroke-width: 1.5"/>
    <path d="M 282.169545 157.623404 
L 282.169545 156.898512 
" clip-path="url(#pc090826f41)" style="fill: none; stroke: #1f77b4; stroke-width: 1.5"/>
    <path d="M 285.213182 158.07404 
L 285.213182 157.351577 
" clip-path="url(#pc090826f41)" style="fill: none; stroke: #1f77b4; stroke-width: 1.5"/>
    <path d="M 288.256818 159.427858 
L 288.256818 158.712739 
" clip-path="url(#pc090826f41)" style="fill: none; stroke: #1f77b4; stroke-width: 1.5"/>
    <path d="M 291.300455 160.568904 
L 291.300455 159.860035 
" clip-path="url(#pc090826f41)" style="fill: none; stroke: #1f77b4; stroke-width: 1.5"/>
    <path d="M 294.344091 162.019345 
L 294.344091 161.318502 
" clip-path="url(#pc090826f41)" style="fill: none; stroke: #1f77b4; stroke-width: 1.5"/>
    <path d="M 297.387727 162.773556 
L 297.387727 162.076923 
" clip-path="url(#pc090826f41)" style="fill: none; stroke: #1f77b4; stroke-width: 1.5"/>
    <path d="M 300.431364 163.831364 
L 300.431364 163.140678 
" clip-path="url(#pc090826f41)" style="fill: none; stroke: #1f77b4; stroke-width: 1.5"/>
    <path d="M 303.475 164.411504 
L 303.475 163.724102 
" clip-path="url(#pc090826f41)" style="fill: none; stroke: #1f77b4; stroke-width: 1.5"/>
    <path d="M 306.518636 165.453801 
L 306.518636 164.77234 
" clip-path="url(#pc090826f41)" style="fill: none; stroke: #1f77b4; stroke-width: 1.5"/>
    <path d="M 309.562273 167.232801 
L 309.562273 166.5616 
" clip-path="url(#pc090826f41)" style="fill: none; stroke: #1f77b4; stroke-width: 1.5"/>
    <path d="M 312.605909 167.984985 
L 312.605909 167.31817 
" clip-path="url(#pc090826f41)" style="fill: none; stroke: #1f77b4; stroke-width: 1.5"/>
    <path d="M 315.649545 168.951781 
L 315.649545 168.290647 
" clip-path="url(#pc090826f41)" style="fill: none; stroke: #1f77b4; stroke-width: 1.5"/>
    <path d="M 318.693182 169.671061 
L 318.693182 169.014185 
" clip-path="url(#pc090826f41)" style="fill: none; stroke: #1f77b4; stroke-width: 1.5"/>
    <path d="M 321.736818 169.692329 
L 321.736818 169.03558 
" clip-path="url(#pc090826f41)" style="fill: none; stroke: #1f77b4; stroke-width: 1.5"/>
    <path d="M 324.780455 171.225586 
L 324.780455 170.578009 
" clip-path="url(#pc090826f41)" style="fill: none; stroke: #1f77b4; stroke-width: 1.5"/>
    <path d="M 327.824091 171.904219 
L 327.824091 171.260745 
" clip-path="url(#pc090826f41)" style="fill: none; stroke: #1f77b4; stroke-width: 1.5"/>
    <path d="M 330.867727 173.317513 
L 330.867727 172.682667 
" clip-path="url(#pc090826f41)" style="fill: none; stroke: #1f77b4; stroke-width: 1.5"/>
    <path d="M 333.911364 173.847241 
L 333.911364 173.21566 
" clip-path="url(#pc090826f41)" style="fill: none; stroke: #1f77b4; stroke-width: 1.5"/>
    <path d="M 336.955 174.819676 
L 336.955 174.194133 
" clip-path="url(#pc090826f41)" style="fill: none; stroke: #1f77b4; stroke-width: 1.5"/>
    <path d="M 339.998636 175.285584 
L 339.998636 174.662954 
" clip-path="url(#pc090826f41)" style="fill: none; stroke: #1f77b4; stroke-width: 1.5"/>
    <path d="M 343.042273 176.19998 
L 343.042273 175.583109 
" clip-path="url(#pc090826f41)" style="fill: none; stroke: #1f77b4; stroke-width: 1.5"/>
    <path d="M 346.085909 176.861112 
L 346.085909 176.248439 
" clip-path="url(#pc090826f41)" style="fill: none; stroke: #1f77b4; stroke-width: 1.5"/>
    <path d="M 349.129545 177.27093 
L 349.129545 176.660873 
" clip-path="url(#pc090826f41)" style="fill: none; stroke: #1f77b4; stroke-width: 1.5"/>
    <path d="M 352.173182 178.370836 
L 352.173182 177.767858 
" clip-path="url(#pc090826f41)" style="fill: none; stroke: #1f77b4; stroke-width: 1.5"/>
    <path d="M 355.216818 178.552539 
L 355.216818 177.950738 
" clip-path="url(#pc090826f41)" style="fill: none; stroke: #1f77b4; stroke-width: 1.5"/>
    <path d="M 358.260455 179.955864 
L 358.260455 179.363236 
" clip-path="url(#pc090826f41)" style="fill: none; stroke: #1f77b4; stroke-width: 1.5"/>
    <path d="M 361.304091 180.33471 
L 361.304091 179.744584 
" clip-path="url(#pc090826f41)" style="fill: none; stroke: #1f77b4; stroke-width: 1.5"/>
    <path d="M 364.347727 181.438361 
L 364.347727 180.855582 
" clip-path="url(#pc090826f41)" style="fill: none; stroke: #1f77b4; stroke-width: 1.5"/>
    <path d="M 367.391364 181.616178 
L 367.391364 181.034592 
" clip-path="url(#pc090826f41)" style="fill: none; stroke: #1f77b4; stroke-width: 1.5"/>
    <path d="M 370.435 182.628936 
L 370.435 182.05419 
" clip-path="url(#pc090826f41)" style="fill: none; stroke: #1f77b4; stroke-width: 1.5"/>
   </g>
   <g id="LineCollection_2"/>
   <g id="LineCollection_3"/>
   <g id="LineCollection_4">
    <path d="M 69.115 18.821714 
L 69.115 17.554286 
" clip-path="url(#pc090826f41)" style="fill: none; stroke: #ff7f0e; stroke-width: 1.5"/>
    <path d="M 72.158636 21.979801 
L 72.158636 20.722104 
" clip-path="url(#pc090826f41)" style="fill: none; stroke: #ff7f0e; stroke-width: 1.5"/>
    <path d="M 75.202273 25.873625 
L 75.202273 24.628032 
" clip-path="url(#pc090826f41)" style="fill: none; stroke: #ff7f0e; stroke-width: 1.5"/>
    <path d="M 78.245909 28.741192 
L 78.245909 27.504589 
" clip-path="url(#pc090826f41)" style="fill: none; stroke: #ff7f0e; stroke-width: 1.5"/>
    <path d="M 81.289545 30.793583 
L 81.289545 29.563455 
" clip-path="url(#pc090826f41)" style="fill: none; stroke: #ff7f0e; stroke-width: 1.5"/>
    <path d="M 84.333182 35.444315 
L 84.333182 34.228986 
" clip-path="url(#pc090826f41)" style="fill: none; stroke: #ff7f0e; stroke-width: 1.5"/>
    <path d="M 87.376818 38.729977 
L 87.376818 37.525213 
" clip-path="url(#pc090826f41)" style="fill: none; stroke: #ff7f0e; stroke-width: 1.5"/>
    <path d="M 90.420455 41.063021 
L 90.420455 39.865815 
" clip-path="url(#pc090826f41)" style="fill: none; stroke: #ff7f0e; stroke-width: 1.5"/>
    <path d="M 93.464091 44.644825 
L 93.464091 43.459318 
" clip-path="url(#pc090826f41)" style="fill: none; stroke: #ff7f0e; stroke-width: 1.5"/>
    <path d="M 96.507727 46.524765 
L 96.507727 45.345445 
" clip-path="url(#pc090826f41)" style="fill: none; stroke: #ff7f0e; stroke-width: 1.5"/>
    <path d="M 99.551364 49.663124 
L 99.551364 48.494206 
" clip-path="url(#pc090826f41)" style="fill: none; stroke: #ff7f0e; stroke-width: 1.5"/>
    <path d="M 102.595 51.401689 
L 102.595 50.238573 
" clip-path="url(#pc090826f41)" style="fill: none; stroke: #ff7f0e; stroke-width: 1.5"/>
    <path d="M 105.638636 54.508999 
L 105.638636 53.356327 
" clip-path="url(#pc090826f41)" style="fill: none; stroke: #ff7f0e; stroke-width: 1.5"/>
    <path d="M 108.682273 57.428472 
L 108.682273 56.285699 
" clip-path="url(#pc090826f41)" style="fill: none; stroke: #ff7f0e; stroke-width: 1.5"/>
    <path d="M 111.725909 60.709923 
L 111.725909 59.57838 
" clip-path="url(#pc090826f41)" style="fill: none; stroke: #ff7f0e; stroke-width: 1.5"/>
    <path d="M 114.769545 63.005937 
L 114.769545 61.882319 
" clip-path="url(#pc090826f41)" style="fill: none; stroke: #ff7f0e; stroke-width: 1.5"/>
    <path d="M 117.813182 64.42496 
L 117.813182 63.306269 
" clip-path="url(#pc090826f41)" style="fill: none; stroke: #ff7f0e; stroke-width: 1.5"/>
    <path d="M 120.856818 68.439982 
L 120.856818 67.335348 
" clip-path="url(#pc090826f41)" style="fill: none; stroke: #ff7f0e; stroke-width: 1.5"/>
    <path d="M 123.900455 70.567481 
L 123.900455 69.470369 
" clip-path="url(#pc090826f41)" style="fill: none; stroke: #ff7f0e; stroke-width: 1.5"/>
    <path d="M 126.944091 72.236165 
L 126.944091 71.144989 
" clip-path="url(#pc090826f41)" style="fill: none; stroke: #ff7f0e; stroke-width: 1.5"/>
    <path d="M 129.987727 75.93354 
L 129.987727 74.855634 
" clip-path="url(#pc090826f41)" style="fill: none; stroke: #ff7f0e; stroke-width: 1.5"/>
    <path d="M 133.031364 78.00868 
L 133.031364 76.938294 
" clip-path="url(#pc090826f41)" style="fill: none; stroke: #ff7f0e; stroke-width: 1.5"/>
    <path d="M 136.075 80.97616 
L 136.075 79.916621 
" clip-path="url(#pc090826f41)" style="fill: none; stroke: #ff7f0e; stroke-width: 1.5"/>
    <path d="M 139.118636 82.414391 
L 139.118636 81.360149 
" clip-path="url(#pc090826f41)" style="fill: none; stroke: #ff7f0e; stroke-width: 1.5"/>
    <path d="M 142.162273 85.356624 
L 142.162273 84.313303 
" clip-path="url(#pc090826f41)" style="fill: none; stroke: #ff7f0e; stroke-width: 1.5"/>
    <path d="M 145.205909 87.903932 
L 145.205909 86.87016 
" clip-path="url(#pc090826f41)" style="fill: none; stroke: #ff7f0e; stroke-width: 1.5"/>
    <path d="M 148.249545 88.48849 
L 148.249545 87.456922 
" clip-path="url(#pc090826f41)" style="fill: none; stroke: #ff7f0e; stroke-width: 1.5"/>
    <path d="M 151.293182 91.403503 
L 151.293182 90.382996 
" clip-path="url(#pc090826f41)" style="fill: none; stroke: #ff7f0e; stroke-width: 1.5"/>
    <path d="M 154.336818 92.111924 
L 154.336818 91.094123 
" clip-path="url(#pc090826f41)" style="fill: none; stroke: #ff7f0e; stroke-width: 1.5"/>
    <path d="M 157.380455 94.933956 
L 157.380455 93.927008 
" clip-path="url(#pc090826f41)" style="fill: none; stroke: #ff7f0e; stroke-width: 1.5"/>
    <path d="M 160.424091 98.206897 
L 160.424091 97.212685 
" clip-path="url(#pc090826f41)" style="fill: none; stroke: #ff7f0e; stroke-width: 1.5"/>
    <path d="M 163.467727 99.646887 
L 163.467727 98.658332 
" clip-path="url(#pc090826f41)" style="fill: none; stroke: #ff7f0e; stroke-width: 1.5"/>
    <path d="M 166.511364 101.582333 
L 166.511364 100.60143 
" clip-path="url(#pc090826f41)" style="fill: none; stroke: #ff7f0e; stroke-width: 1.5"/>
    <path d="M 169.555 103.364851 
L 169.555 102.391051 
" clip-path="url(#pc090826f41)" style="fill: none; stroke: #ff7f0e; stroke-width: 1.5"/>
    <path d="M 172.598636 104.253198 
L 172.598636 103.282956 
" clip-path="url(#pc090826f41)" style="fill: none; stroke: #ff7f0e; stroke-width: 1.5"/>
    <path d="M 175.642273 107.498799 
L 175.642273 106.541673 
" clip-path="url(#pc090826f41)" style="fill: none; stroke: #ff7f0e; stroke-width: 1.5"/>
    <path d="M 178.685909 108.6658 
L 178.685909 107.713434 
" clip-path="url(#pc090826f41)" style="fill: none; stroke: #ff7f0e; stroke-width: 1.5"/>
    <path d="M 181.729545 111.038472 
L 181.729545 110.095858 
" clip-path="url(#pc090826f41)" style="fill: none; stroke: #ff7f0e; stroke-width: 1.5"/>
    <path d="M 184.773182 112.522817 
L 184.773182 111.586356 
" clip-path="url(#pc090826f41)" style="fill: none; stroke: #ff7f0e; stroke-width: 1.5"/>
    <path d="M 187.816818 115.394686 
L 187.816818 114.470247 
" clip-path="url(#pc090826f41)" style="fill: none; stroke: #ff7f0e; stroke-width: 1.5"/>
    <path d="M 190.860455 116.025558 
L 190.860455 115.10378 
" clip-path="url(#pc090826f41)" style="fill: none; stroke: #ff7f0e; stroke-width: 1.5"/>
    <path d="M 193.904091 118.605125 
L 193.904091 117.694313 
" clip-path="url(#pc090826f41)" style="fill: none; stroke: #ff7f0e; stroke-width: 1.5"/>
    <path d="M 196.947727 119.235976 
L 196.947727 118.327866 
" clip-path="url(#pc090826f41)" style="fill: none; stroke: #ff7f0e; stroke-width: 1.5"/>
    <path d="M 199.991364 121.203976 
L 199.991364 120.304347 
" clip-path="url(#pc090826f41)" style="fill: none; stroke: #ff7f0e; stroke-width: 1.5"/>
    <path d="M 203.035 122.546913 
L 203.035 121.653118 
" clip-path="url(#pc090826f41)" style="fill: none; stroke: #ff7f0e; stroke-width: 1.5"/>
    <path d="M 206.078636 124.948286 
L 206.078636 124.065019 
" clip-path="url(#pc090826f41)" style="fill: none; stroke: #ff7f0e; stroke-width: 1.5"/>
    <path d="M 209.122273 126.490472 
L 209.122273 125.614033 
" clip-path="url(#pc090826f41)" style="fill: none; stroke: #ff7f0e; stroke-width: 1.5"/>
    <path d="M 212.165909 128.365439 
L 212.165909 127.497375 
" clip-path="url(#pc090826f41)" style="fill: none; stroke: #ff7f0e; stroke-width: 1.5"/>
    <path d="M 215.209545 129.688921 
L 215.209545 128.826817 
" clip-path="url(#pc090826f41)" style="fill: none; stroke: #ff7f0e; stroke-width: 1.5"/>
    <path d="M 218.253182 131.416769 
L 218.253182 130.56251 
" clip-path="url(#pc090826f41)" style="fill: none; stroke: #ff7f0e; stroke-width: 1.5"/>
    <path d="M 221.296818 131.900482 
L 221.296818 131.048432 
" clip-path="url(#pc090826f41)" style="fill: none; stroke: #ff7f0e; stroke-width: 1.5"/>
    <path d="M 224.340455 132.991729 
L 224.340455 132.144684 
" clip-path="url(#pc090826f41)" style="fill: none; stroke: #ff7f0e; stroke-width: 1.5"/>
    <path d="M 227.384091 134.942006 
L 227.384091 134.10398 
" clip-path="url(#pc090826f41)" style="fill: none; stroke: #ff7f0e; stroke-width: 1.5"/>
    <path d="M 230.427727 136.754868 
L 230.427727 135.925314 
" clip-path="url(#pc090826f41)" style="fill: none; stroke: #ff7f0e; stroke-width: 1.5"/>
    <path d="M 233.471364 138.587032 
L 233.471364 137.766131 
" clip-path="url(#pc090826f41)" style="fill: none; stroke: #ff7f0e; stroke-width: 1.5"/>
    <path d="M 236.515 139.093917 
L 236.515 138.275425 
" clip-path="url(#pc090826f41)" style="fill: none; stroke: #ff7f0e; stroke-width: 1.5"/>
    <path d="M 239.558636 140.277923 
L 239.558636 139.465088 
" clip-path="url(#pc090826f41)" style="fill: none; stroke: #ff7f0e; stroke-width: 1.5"/>
    <path d="M 242.602273 141.819809 
L 242.602273 141.014401 
" clip-path="url(#pc090826f41)" style="fill: none; stroke: #ff7f0e; stroke-width: 1.5"/>
    <path d="M 245.645909 143.589937 
L 245.645909 142.793141 
" clip-path="url(#pc090826f41)" style="fill: none; stroke: #ff7f0e; stroke-width: 1.5"/>
    <path d="M 248.689545 145.495432 
L 248.689545 144.708012 
" clip-path="url(#pc090826f41)" style="fill: none; stroke: #ff7f0e; stroke-width: 1.5"/>
    <path d="M 251.733182 146.78572 
L 251.733182 146.004713 
" clip-path="url(#pc090826f41)" style="fill: none; stroke: #ff7f0e; stroke-width: 1.5"/>
    <path d="M 254.776818 146.43365 
L 254.776818 145.650888 
" clip-path="url(#pc090826f41)" style="fill: none; stroke: #ff7f0e; stroke-width: 1.5"/>
    <path d="M 257.820455 149.025766 
L 257.820455 148.256021 
" clip-path="url(#pc090826f41)" style="fill: none; stroke: #ff7f0e; stroke-width: 1.5"/>
    <path d="M 260.864091 149.985208 
L 260.864091 149.220337 
" clip-path="url(#pc090826f41)" style="fill: none; stroke: #ff7f0e; stroke-width: 1.5"/>
    <path d="M 263.907727 150.505544 
L 263.907727 149.743329 
" clip-path="url(#pc090826f41)" style="fill: none; stroke: #ff7f0e; stroke-width: 1.5"/>
    <path d="M 266.951364 152.02397 
L 266.951364 151.269561 
" clip-path="url(#pc090826f41)" style="fill: none; stroke: #ff7f0e; stroke-width: 1.5"/>
    <path d="M 269.995 153.083942 
L 269.995 152.335031 
" clip-path="url(#pc090826f41)" style="fill: none; stroke: #ff7f0e; stroke-width: 1.5"/>
    <path d="M 273.038636 153.880842 
L 273.038636 153.136091 
" clip-path="url(#pc090826f41)" style="fill: none; stroke: #ff7f0e; stroke-width: 1.5"/>
    <path d="M 276.082273 155.54617 
L 276.082273 154.810189 
" clip-path="url(#pc090826f41)" style="fill: none; stroke: #ff7f0e; stroke-width: 1.5"/>
    <path d="M 279.125909 156.575127 
L 279.125909 155.844618 
" clip-path="url(#pc090826f41)" style="fill: none; stroke: #ff7f0e; stroke-width: 1.5"/>
    <path d="M 282.169545 157.623404 
L 282.169545 156.898512 
" clip-path="url(#pc090826f41)" style="fill: none; stroke: #ff7f0e; stroke-width: 1.5"/>
    <path d="M 285.213182 158.07404 
L 285.213182 157.351577 
" clip-path="url(#pc090826f41)" style="fill: none; stroke: #ff7f0e; stroke-width: 1.5"/>
    <path d="M 288.256818 159.427858 
L 288.256818 158.712739 
" clip-path="url(#pc090826f41)" style="fill: none; stroke: #ff7f0e; stroke-width: 1.5"/>
    <path d="M 291.300455 160.568904 
L 291.300455 159.860035 
" clip-path="url(#pc090826f41)" style="fill: none; stroke: #ff7f0e; stroke-width: 1.5"/>
    <path d="M 294.344091 162.019345 
L 294.344091 161.318502 
" clip-path="url(#pc090826f41)" style="fill: none; stroke: #ff7f0e; stroke-width: 1.5"/>
    <path d="M 297.387727 162.773556 
L 297.387727 162.076923 
" clip-path="url(#pc090826f41)" style="fill: none; stroke: #ff7f0e; stroke-width: 1.5"/>
    <path d="M 300.431364 163.831364 
L 300.431364 163.140678 
" clip-path="url(#pc090826f41)" style="fill: none; stroke: #ff7f0e; stroke-width: 1.5"/>
    <path d="M 303.475 164.411504 
L 303.475 163.724102 
" clip-path="url(#pc090826f41)" style="fill: none; stroke: #ff7f0e; stroke-width: 1.5"/>
    <path d="M 306.518636 165.453801 
L 306.518636 164.77234 
" clip-path="url(#pc090826f41)" style="fill: none; stroke: #ff7f0e; stroke-width: 1.5"/>
    <path d="M 309.562273 167.232801 
L 309.562273 166.5616 
" clip-path="url(#pc090826f41)" style="fill: none; stroke: #ff7f0e; stroke-width: 1.5"/>
    <path d="M 312.605909 167.984985 
L 312.605909 167.31817 
" clip-path="url(#pc090826f41)" style="fill: none; stroke: #ff7f0e; stroke-width: 1.5"/>
    <path d="M 315.649545 168.951781 
L 315.649545 168.290647 
" clip-path="url(#pc090826f41)" style="fill: none; stroke: #ff7f0e; stroke-width: 1.5"/>
    <path d="M 318.693182 169.671061 
L 318.693182 169.014185 
" clip-path="url(#pc090826f41)" style="fill: none; stroke: #ff7f0e; stroke-width: 1.5"/>
    <path d="M 321.736818 169.692329 
L 321.736818 169.03558 
" clip-path="url(#pc090826f41)" style="fill: none; stroke: #ff7f0e; stroke-width: 1.5"/>
    <path d="M 324.780455 171.225586 
L 324.780455 170.578009 
" clip-path="url(#pc090826f41)" style="fill: none; stroke: #ff7f0e; stroke-width: 1.5"/>
    <path d="M 327.824091 171.904219 
L 327.824091 171.260745 
" clip-path="url(#pc090826f41)" style="fill: none; stroke: #ff7f0e; stroke-width: 1.5"/>
    <path d="M 330.867727 173.317513 
L 330.867727 172.682667 
" clip-path="url(#pc090826f41)" style="fill: none; stroke: #ff7f0e; stroke-width: 1.5"/>
    <path d="M 333.911364 173.847241 
L 333.911364 173.21566 
" clip-path="url(#pc090826f41)" style="fill: none; stroke: #ff7f0e; stroke-width: 1.5"/>
    <path d="M 336.955 174.819676 
L 336.955 174.194133 
" clip-path="url(#pc090826f41)" style="fill: none; stroke: #ff7f0e; stroke-width: 1.5"/>
    <path d="M 339.998636 175.285584 
L 339.998636 174.662954 
" clip-path="url(#pc090826f41)" style="fill: none; stroke: #ff7f0e; stroke-width: 1.5"/>
    <path d="M 343.042273 176.19998 
L 343.042273 175.583109 
" clip-path="url(#pc090826f41)" style="fill: none; stroke: #ff7f0e; stroke-width: 1.5"/>
    <path d="M 346.085909 176.861112 
L 346.085909 176.248439 
" clip-path="url(#pc090826f41)" style="fill: none; stroke: #ff7f0e; stroke-width: 1.5"/>
    <path d="M 349.129545 177.27093 
L 349.129545 176.660873 
" clip-path="url(#pc090826f41)" style="fill: none; stroke: #ff7f0e; stroke-width: 1.5"/>
    <path d="M 352.173182 178.370836 
L 352.173182 177.767858 
" clip-path="url(#pc090826f41)" style="fill: none; stroke: #ff7f0e; stroke-width: 1.5"/>
    <path d="M 355.216818 178.552539 
L 355.216818 177.950738 
" clip-path="url(#pc090826f41)" style="fill: none; stroke: #ff7f0e; stroke-width: 1.5"/>
    <path d="M 358.260455 179.955864 
L 358.260455 179.363236 
" clip-path="url(#pc090826f41)" style="fill: none; stroke: #ff7f0e; stroke-width: 1.5"/>
    <path d="M 361.304091 180.33471 
L 361.304091 179.744584 
" clip-path="url(#pc090826f41)" style="fill: none; stroke: #ff7f0e; stroke-width: 1.5"/>
    <path d="M 364.347727 181.438361 
L 364.347727 180.855582 
" clip-path="url(#pc090826f41)" style="fill: none; stroke: #ff7f0e; stroke-width: 1.5"/>
    <path d="M 367.391364 181.616178 
L 367.391364 181.034592 
" clip-path="url(#pc090826f41)" style="fill: none; stroke: #ff7f0e; stroke-width: 1.5"/>
    <path d="M 370.435 182.628936 
L 370.435 182.05419 
" clip-path="url(#pc090826f41)" style="fill: none; stroke: #ff7f0e; stroke-width: 1.5"/>
   </g>
   <g id="LineCollection_5"/>
   <g id="LineCollection_6"/>
   <g id="line2d_16"/>
   <g id="line2d_17"/>
   <g id="line2d_18"/>
   <g id="line2d_19"/>
   <g id="patch_5">
    <path d="M 52.375 224.64 
L 52.375 7.2 
" style="fill: none; stroke: #000000; stroke-width: 0.8; stroke-linejoin: miter; stroke-linecap: square"/>
   </g>
   <g id="patch_6">
    <path d="M 387.175 224.64 
L 387.175 7.2 
" style="fill: none; stroke: #000000; stroke-width: 0.8; stroke-linejoin: miter; stroke-linecap: square"/>
   </g>
   <g id="patch_7">
    <path d="M 52.375 224.64 
L 387.175 224.64 
" style="fill: none; stroke: #000000; stroke-width: 0.8; stroke-linejoin: miter; stroke-linecap: square"/>
   </g>
   <g id="patch_8">
    <path d="M 52.375 7.2 
L 387.175 7.2 
" style="fill: none; stroke: #000000; stroke-width: 0.8; stroke-linejoin: miter; stroke-linecap: square"/>
   </g>
   <g id="legend_1">
    <g id="patch_9">
     <path d="M 309.834375 44.55625 
L 380.175 44.55625 
Q 382.175 44.55625 382.175 42.55625 
L 382.175 14.2 
Q 382.175 12.2 380.175 12.2 
L 309.834375 12.2 
Q 307.834375 12.2 307.834375 14.2 
L 307.834375 42.55625 
Q 307.834375 44.55625 309.834375 44.55625 
z
" style="fill: #ffffff; opacity: 0.8; stroke: #cccccc; stroke-linejoin: miter"/>
    </g>
    <g id="LineCollection_7">
     <path d="M 316.834375 20.298437 
L 326.834375 20.298437 
" style="fill: none; stroke: #1f77b4; stroke-width: 1.5"/>
    </g>
    <g id="LineCollection_8">
     <path d="M 321.834375 25.298437 
L 321.834375 15.298437 
" style="fill: none; stroke: #1f77b4; stroke-width: 1.5"/>
    </g>
    <g id="line2d_20">
     <path d="M 311.834375 20.298437 
L 331.834375 20.298437 
" style="fill: none; stroke: #1f77b4; stroke-width: 1.5; stroke-linecap: square"/>
    </g>
    <g id="line2d_21"/>
    <g id="text_17">
     <!-- forward -->
     <g transform="translate(339.834375 23.798437)scale(0.1 -0.1)">
      <defs>
       <path id="DejaVuSans-66" d="M 2375 4863 
L 2375 4384 
L 1825 4384 
Q 1516 4384 1395 4259 
Q 1275 4134 1275 3809 
L 1275 3500 
L 2222 3500 
L 2222 3053 
L 1275 3053 
L 1275 0 
L 697 0 
L 697 3053 
L 147 3053 
L 147 3500 
L 697 3500 
L 697 3744 
Q 697 4328 969 4595 
Q 1241 4863 1831 4863 
L 2375 4863 
z
" transform="scale(0.015625)"/>
       <path id="DejaVuSans-6f" d="M 1959 3097 
Q 1497 3097 1228 2736 
Q 959 2375 959 1747 
Q 959 1119 1226 758 
Q 1494 397 1959 397 
Q 2419 397 2687 759 
Q 2956 1122 2956 1747 
Q 2956 2369 2687 2733 
Q 2419 3097 1959 3097 
z
M 1959 3584 
Q 2709 3584 3137 3096 
Q 3566 2609 3566 1747 
Q 3566 888 3137 398 
Q 2709 -91 1959 -91 
Q 1206 -91 779 398 
Q 353 888 353 1747 
Q 353 2609 779 3096 
Q 1206 3584 1959 3584 
z
" transform="scale(0.015625)"/>
       <path id="DejaVuSans-72" d="M 2631 2963 
Q 2534 3019 2420 3045 
Q 2306 3072 2169 3072 
Q 1681 3072 1420 2755 
Q 1159 2438 1159 1844 
L 1159 0 
L 581 0 
L 581 3500 
L 1159 3500 
L 1159 2956 
Q 1341 3275 1631 3429 
Q 1922 3584 2338 3584 
Q 2397 3584 2469 3576 
Q 2541 3569 2628 3553 
L 2631 2963 
z
" transform="scale(0.015625)"/>
       <path id="DejaVuSans-77" d="M 269 3500 
L 844 3500 
L 1563 769 
L 2278 3500 
L 2956 3500 
L 3675 769 
L 4391 3500 
L 4966 3500 
L 4050 0 
L 3372 0 
L 2619 2869 
L 1863 0 
L 1184 0 
L 269 3500 
z
" transform="scale(0.015625)"/>
       <path id="DejaVuSans-61" d="M 2194 1759 
Q 1497 1759 1228 1600 
Q 959 1441 959 1056 
Q 959 750 1161 570 
Q 1363 391 1709 391 
Q 2188 391 2477 730 
Q 2766 1069 2766 1631 
L 2766 1759 
L 2194 1759 
z
M 3341 1997 
L 3341 0 
L 2766 0 
L 2766 531 
Q 2569 213 2275 61 
Q 1981 -91 1556 -91 
Q 1019 -91 701 211 
Q 384 513 384 1019 
Q 384 1609 779 1909 
Q 1175 2209 1959 2209 
L 2766 2209 
L 2766 2266 
Q 2766 2663 2505 2880 
Q 2244 3097 1772 3097 
Q 1472 3097 1187 3025 
Q 903 2953 641 2809 
L 641 3341 
Q 956 3463 1253 3523 
Q 1550 3584 1831 3584 
Q 2591 3584 2966 3190 
Q 3341 2797 3341 1997 
z
" transform="scale(0.015625)"/>
       <path id="DejaVuSans-64" d="M 2906 2969 
L 2906 4863 
L 3481 4863 
L 3481 0 
L 2906 0 
L 2906 525 
Q 2725 213 2448 61 
Q 2172 -91 1784 -91 
Q 1150 -91 751 415 
Q 353 922 353 1747 
Q 353 2572 751 3078 
Q 1150 3584 1784 3584 
Q 2172 3584 2448 3432 
Q 2725 3281 2906 2969 
z
M 947 1747 
Q 947 1113 1208 752 
Q 1469 391 1925 391 
Q 2381 391 2643 752 
Q 2906 1113 2906 1747 
Q 2906 2381 2643 2742 
Q 2381 3103 1925 3103 
Q 1469 3103 1208 2742 
Q 947 2381 947 1747 
z
" transform="scale(0.015625)"/>
      </defs>
      <use xlink:href="#DejaVuSans-66"/>
      <use xlink:href="#DejaVuSans-6f" x="35.205078"/>
      <use xlink:href="#DejaVuSans-72" x="96.386719"/>
      <use xlink:href="#DejaVuSans-77" x="137.5"/>
      <use xlink:href="#DejaVuSans-61" x="219.287109"/>
      <use xlink:href="#DejaVuSans-72" x="280.566406"/>
      <use xlink:href="#DejaVuSans-64" x="319.929688"/>
     </g>
    </g>
    <g id="LineCollection_9">
     <path d="M 316.834375 34.976562 
L 326.834375 34.976562 
" style="fill: none; stroke: #ff7f0e; stroke-width: 1.5"/>
    </g>
    <g id="LineCollection_10">
     <path d="M 321.834375 39.976562 
L 321.834375 29.976562 
" style="fill: none; stroke: #ff7f0e; stroke-width: 1.5"/>
    </g>
    <g id="line2d_22">
     <path d="M 311.834375 34.976562 
L 331.834375 34.976562 
" style="fill: none; stroke: #ff7f0e; stroke-width: 1.5; stroke-linecap: square"/>
    </g>
    <g id="line2d_23"/>
    <g id="text_18">
     <!-- central -->
     <g transform="translate(339.834375 38.476562)scale(0.1 -0.1)">
      <defs>
       <path id="DejaVuSans-63" d="M 3122 3366 
L 3122 2828 
Q 2878 2963 2633 3030 
Q 2388 3097 2138 3097 
Q 1578 3097 1268 2742 
Q 959 2388 959 1747 
Q 959 1106 1268 751 
Q 1578 397 2138 397 
Q 2388 397 2633 464 
Q 2878 531 3122 666 
L 3122 134 
Q 2881 22 2623 -34 
Q 2366 -91 2075 -91 
Q 1284 -91 818 406 
Q 353 903 353 1747 
Q 353 2603 823 3093 
Q 1294 3584 2113 3584 
Q 2378 3584 2631 3529 
Q 2884 3475 3122 3366 
z
" transform="scale(0.015625)"/>
       <path id="DejaVuSans-65" d="M 3597 1894 
L 3597 1613 
L 953 1613 
Q 991 1019 1311 708 
Q 1631 397 2203 397 
Q 2534 397 2845 478 
Q 3156 559 3463 722 
L 3463 178 
Q 3153 47 2828 -22 
Q 2503 -91 2169 -91 
Q 1331 -91 842 396 
Q 353 884 353 1716 
Q 353 2575 817 3079 
Q 1281 3584 2069 3584 
Q 2775 3584 3186 3129 
Q 3597 2675 3597 1894 
z
M 3022 2063 
Q 3016 2534 2758 2815 
Q 2500 3097 2075 3097 
Q 1594 3097 1305 2825 
Q 1016 2553 972 2059 
L 3022 2063 
z
" transform="scale(0.015625)"/>
       <path id="DejaVuSans-6e" d="M 3513 2113 
L 3513 0 
L 2938 0 
L 2938 2094 
Q 2938 2591 2744 2837 
Q 2550 3084 2163 3084 
Q 1697 3084 1428 2787 
Q 1159 2491 1159 1978 
L 1159 0 
L 581 0 
L 581 3500 
L 1159 3500 
L 1159 2956 
Q 1366 3272 1645 3428 
Q 1925 3584 2291 3584 
Q 2894 3584 3203 3211 
Q 3513 2838 3513 2113 
z
" transform="scale(0.015625)"/>
       <path id="DejaVuSans-6c" d="M 603 4863 
L 1178 4863 
L 1178 0 
L 603 0 
L 603 4863 
z
" transform="scale(0.015625)"/>
      </defs>
      <use xlink:href="#DejaVuSans-63"/>
      <use xlink:href="#DejaVuSans-65" x="54.980469"/>
      <use xlink:href="#DejaVuSans-6e" x="116.503906"/>
      <use xlink:href="#DejaVuSans-74" x="179.882812"/>
      <use xlink:href="#DejaVuSans-72" x="219.091797"/>
      <use xlink:href="#DejaVuSans-61" x="260.205078"/>
      <use xlink:href="#DejaVuSans-6c" x="321.484375"/>
     </g>
    </g>
   </g>
  </g>
 </g>
 <defs>
  <clipPath id="pc090826f41">
   <rect x="52.375" y="7.2" width="334.8" height="217.44"/>
  </clipPath>
 </defs>
</svg>
