<?xml version="1.0" encoding="utf-8" standalone="no"?>
<!DOCTYPE svg PUBLIC "-//W3C//DTD SVG 1.1//EN"
  "http://www.w3.org/Graphics/SVG/1.1/DTD/svg11.dtd">
<svg xmlns:xlink="http://www.w3.org/1999/xlink" width="388.0125pt" height="262.19625pt" viewBox="0 0 388.0125 262.19625" xmlns="http://www.w3.org/2000/svg" version="1.1">
 <metadata>
  <rdf:RDF xmlns:dc="http://purl.org/dc/elements/1.1/" xmlns:cc="http://creativecommons.org/ns#" xmlns:rdf="http://www.w3.org/1999/02/22-rdf-syntax-ns#">
   <cc:Work>
    <dc:type rdf:resource="http://purl.org/dc/dcmitype/StillImage"/>
    <dc:date>2022-03-24T11:35:34.811538</dc:date>
    <dc:format>image/svg+xml</dc:format>
    <dc:creator>
     <cc:Agent>
      <dc:title>Matplotlib v3.5.1, https://matplotlib.org/</dc:title>
     </cc:Agent>
    </dc:creator>
   </cc:Work>
  </rdf:RDF>
 </metadata>
 <defs>
  <style type="text/css">*{stroke-linejoin: round; stroke-linecap: butt}</style>
 </defs>
 <g id="figure_1">
  <g id="patch_1">
   <path d="M 0 262.19625 
L 388.0125 262.19625 
L 388.0125 0 
L 0 0 
L 0 262.19625 
z
" style="fill: none"/>
  </g>
  <g id="axes_1">
   <g id="patch_2">
    <path d="M 46.0125 224.64 
L 380.8125 224.64 
L 380.8125 7.2 
L 46.0125 7.2 
z
" style="fill: #ffffff"/>
   </g>
   <g id="patch_3">
    <path d="M 61.230682 224.64 
L 61.230682 193.538112 
L 64.274318 193.538112 
L 64.274318 194.57722 
L 67.317955 194.57722 
L 67.317955 194.389913 
L 70.361591 194.389913 
L 70.361591 195.571732 
L 73.405227 195.571732 
L 73.405227 194.782366 
L 76.448864 194.782366 
L 76.448864 195.88837 
L 79.4925 195.88837 
L 79.4925 196.187169 
L 82.536136 196.187169 
L 82.536136 196.949776 
L 85.579773 196.949776 
L 85.579773 197.422503 
L 88.623409 197.422503 
L 88.623409 197.293172 
L 91.667045 197.293172 
L 91.667045 197.814956 
L 94.710682 197.814956 
L 94.710682 198.274305 
L 97.754318 198.274305 
L 97.754318 198.564184 
L 100.797955 198.564184 
L 100.797955 199.536397 
L 103.841591 199.536397 
L 103.841591 200.21427 
L 106.885227 200.21427 
L 106.885227 200.392658 
L 109.928864 200.392658 
L 109.928864 200.749433 
L 112.9725 200.749433 
L 112.9725 201.248919 
L 119.059773 201.150805 
L 119.059773 201.65921 
L 122.103409 201.65921 
L 122.103409 202.114099 
L 125.147045 202.114099 
L 125.147045 202.470874 
L 128.190682 202.470874 
L 128.190682 202.930222 
L 131.234318 202.930222 
L 131.234318 203.300377 
L 134.277955 203.300377 
L 134.277955 203.69283 
L 140.365227 203.782023 
L 140.365227 204.491114 
L 143.408864 204.491114 
L 143.408864 205.119931 
L 146.4525 205.119931 
L 146.4525 203.839999 
L 149.496136 203.839999 
L 149.496136 204.932624 
L 152.539773 204.932624 
L 152.539773 205.441029 
L 155.583409 205.441029 
L 155.583409 205.641715 
L 158.627045 205.641715 
L 158.627045 205.900377 
L 161.670682 205.900377 
L 161.670682 206.109982 
L 164.714318 206.109982 
L 164.714318 206.368644 
L 167.757955 206.368644 
L 167.757955 206.698662 
L 170.801591 206.698662 
L 170.801591 207.046517 
L 173.845227 207.046517 
L 173.845227 207.697632 
L 179.9325 207.697632 
L 179.9325 208.433481 
L 182.976136 208.433481 
L 182.976136 208.201578 
L 186.019773 208.201578 
L 186.019773 208.607409 
L 195.150682 208.647547 
L 195.150682 209.285283 
L 198.194318 209.285283 
L 198.194318 209.61084 
L 201.237955 209.61084 
L 201.237955 209.829365 
L 204.281591 209.829365 
L 204.281591 210.351149 
L 207.325227 210.351149 
L 207.325227 210.074648 
L 210.368864 210.074648 
L 210.368864 210.663327 
L 213.4125 210.663327 
L 213.4125 210.868473 
L 216.456136 210.868473 
L 216.456136 211.037941 
L 219.499773 211.037941 
L 219.499773 211.367958 
L 225.587045 211.403636 
L 225.587045 211.524048 
L 228.630682 211.524048 
L 228.630682 211.733653 
L 234.717955 211.78271 
L 234.717955 212.077049 
L 237.761591 212.077049 
L 237.761591 212.340171 
L 240.805227 212.340171 
L 240.805227 212.893173 
L 243.848864 212.893173 
L 243.848864 213.093859 
L 246.8925 213.093859 
L 246.8925 212.955609 
L 252.979773 212.951149 
L 252.979773 213.334682 
L 256.023409 213.334682 
L 256.023409 213.205351 
L 259.067045 213.205351 
L 259.067045 213.557667 
L 265.154318 213.66024 
L 265.154318 213.896603 
L 268.197955 213.896603 
L 268.197955 214.248919 
L 271.241591 214.248919 
L 271.241591 214.592315 
L 274.285227 214.592315 
L 274.285227 214.164185 
L 280.3725 214.23108 
L 280.3725 214.886655 
L 283.416136 214.886655 
L 283.416136 215.087341 
L 289.503409 215.127478 
L 289.503409 215.53331 
L 292.547045 215.53331 
L 292.547045 215.671561 
L 295.590682 215.671561 
L 295.590682 215.470875 
L 301.677955 215.506552 
L 301.677955 216.206724 
L 304.721591 216.206724 
L 304.721591 216.425248 
L 307.765227 216.425248 
L 307.765227 216.059554 
L 310.808864 216.059554 
L 310.808864 216.371732 
L 313.8525 216.371732 
L 313.8525 215.774134 
L 316.896136 215.774134 
L 316.896136 216.40295 
L 319.939773 216.40295 
L 319.939773 216.648233 
L 322.983409 216.648233 
L 322.983409 217.080823 
L 329.070682 217.045146 
L 329.070682 216.69729 
L 332.114318 216.69729 
L 332.114318 217.161098 
L 335.157955 217.161098 
L 335.157955 217.27259 
L 341.245227 217.210154 
L 341.245227 217.758696 
L 359.507045 217.825592 
L 359.507045 218.191286 
L 362.550682 218.191286 
L 362.550682 218.606038 
L 365.594318 218.606038 
L 365.594318 224.64 
L 365.594318 224.64 
" clip-path="url(#p66de288346)" style="fill: none; stroke: #1f77b4; stroke-width: 1.5; stroke-linejoin: miter"/>
   </g>
   <g id="patch_4">
    <path d="M 61.230682 224.64 
L 61.230682 18.517524 
L 64.274318 18.517524 
L 64.274318 21.804316 
L 67.317955 21.804316 
L 67.317955 25.36315 
L 70.361591 25.36315 
L 70.361591 27.798142 
L 73.405227 27.798142 
L 73.405227 31.267781 
L 76.448864 31.267781 
L 76.448864 35.607061 
L 79.4925 35.607061 
L 79.4925 37.992996 
L 82.536136 37.992996 
L 82.536136 40.142567 
L 85.579773 40.142567 
L 85.579773 44.348056 
L 88.623409 44.348056 
L 88.623409 46.667096 
L 91.667045 46.667096 
L 91.667045 49.574815 
L 94.710682 49.574815 
L 94.710682 51.617353 
L 97.754318 51.617353 
L 97.754318 54.641024 
L 100.797955 54.641024 
L 100.797955 56.558691 
L 103.841591 56.558691 
L 103.841591 61.027302 
L 106.885227 61.027302 
L 106.885227 63.573786 
L 109.928864 63.573786 
L 109.928864 64.635192 
L 112.9725 64.635192 
L 112.9725 68.885278 
L 116.016136 68.885278 
L 116.016136 69.928846 
L 119.059773 69.928846 
L 119.059773 71.949086 
L 122.103409 71.949086 
L 122.103409 75.50346 
L 125.147045 75.50346 
L 125.147045 78.143598 
L 128.190682 78.143598 
L 128.190682 81.194027 
L 131.234318 81.194027 
L 131.234318 82.647886 
L 134.277955 82.647886 
L 134.277955 84.913409 
L 137.321591 84.913409 
L 137.321591 87.905862 
L 140.365227 87.905862 
L 140.365227 88.316154 
L 143.408864 88.316154 
L 143.408864 90.635193 
L 146.4525 90.635193 
L 146.4525 92.294198 
L 149.496136 92.294198 
L 149.496136 94.970013 
L 152.539773 94.970013 
L 152.539773 98.836566 
L 155.583409 98.836566 
L 155.583409 99.63931 
L 158.627045 99.63931 
L 158.627045 102.043084 
L 161.670682 102.043084 
L 161.670682 102.943941 
L 164.714318 102.943941 
L 164.714318 104.665382 
L 167.757955 104.665382 
L 167.757955 107.573101 
L 170.801591 107.573101 
L 170.801591 107.854062 
L 173.845227 107.854062 
L 173.845227 110.552175 
L 176.888864 110.552175 
L 176.888864 112.563496 
L 179.9325 112.563496 
L 179.9325 114.565897 
L 182.976136 114.565897 
L 182.976136 116.042055 
L 186.019773 116.042055 
L 186.019773 118.102432 
L 189.063409 118.102432 
L 189.063409 119.248573 
L 192.107045 119.248573 
L 192.107045 122.165211 
L 195.150682 122.165211 
L 195.150682 122.356978 
L 198.194318 122.356978 
L 198.194318 124.595743 
L 201.237955 124.595743 
L 201.237955 126.758693 
L 204.281591 126.758693 
L 204.281591 127.659551 
L 207.325227 127.659551 
L 207.325227 129.372073 
L 210.368864 129.372073 
L 210.368864 131.561781 
L 213.4125 131.561781 
L 213.4125 131.423531 
L 216.456136 131.423531 
L 216.456136 133.229706 
L 219.499773 133.229706 
L 219.499773 134.295572 
L 222.543409 134.295572 
L 222.543409 136.703805 
L 225.587045 136.703805 
L 225.587045 139.147716 
L 228.630682 139.147716 
L 228.630682 139.299346 
L 231.674318 139.299346 
L 231.674318 139.584766 
L 234.717955 139.584766 
L 234.717955 141.40878 
L 237.761591 141.40878 
L 237.761591 142.98751 
L 240.805227 142.98751 
L 240.805227 145.926447 
L 243.848864 145.926447 
L 243.848864 146.46161 
L 246.8925 146.46161 
L 246.8925 146.069157 
L 249.936136 146.069157 
L 249.936136 148.504149 
L 252.979773 148.504149 
L 252.979773 149.721644 
L 256.023409 149.721644 
L 256.023409 150.689397 
L 259.067045 150.689397 
L 259.067045 151.857837 
L 262.110682 151.857837 
L 262.110682 152.459895 
L 265.154318 152.459895 
L 265.154318 153.610495 
L 268.197955 153.610495 
L 268.197955 155.461267 
L 271.241591 155.461267 
L 271.241591 155.831422 
L 274.285227 155.831422 
L 274.285227 157.619758 
L 277.328864 157.619758 
L 277.328864 158.083566 
L 280.3725 158.083566 
L 280.3725 158.993343 
L 283.416136 158.993343 
L 283.416136 160.465041 
L 286.459773 160.465041 
L 286.459773 161.686996 
L 289.503409 161.686996 
L 289.503409 162.980307 
L 292.547045 162.980307 
L 292.547045 163.537768 
L 295.590682 163.537768 
L 295.590682 164.353892 
L 298.634318 164.353892 
L 298.634318 165.669501 
L 301.677955 165.669501 
L 301.677955 166.677391 
L 304.721591 166.677391 
L 304.721591 167.600547 
L 307.765227 167.600547 
L 307.765227 169.58065 
L 316.896136 169.531594 
L 316.896136 170.650976 
L 319.939773 170.650976 
L 319.939773 171.716842 
L 322.983409 171.716842 
L 322.983409 172.425933 
L 326.027045 172.425933 
L 326.027045 173.710324 
L 329.070682 173.710324 
L 329.070682 174.468472 
L 332.114318 174.468472 
L 332.114318 174.651319 
L 335.157955 174.651319 
L 335.157955 175.641371 
L 338.201591 175.641371 
L 338.201591 176.702777 
L 341.245227 176.702777 
L 341.245227 177.014956 
L 344.288864 177.014956 
L 344.288864 178.660582 
L 347.3325 178.660582 
L 347.3325 178.321645 
L 350.376136 178.321645 
L 350.376136 179.458867 
L 353.419773 179.458867 
L 353.419773 180.27945 
L 356.463409 180.27945 
L 356.463409 181.336397 
L 359.507045 181.336397 
L 359.507045 181.72439 
L 362.550682 181.72439 
L 362.550682 182.357666 
L 365.594318 182.357666 
L 365.594318 224.64 
L 365.594318 224.64 
" clip-path="url(#p66de288346)" style="fill: none; stroke: #ff7f0e; stroke-width: 1.5; stroke-linejoin: miter"/>
   </g>
   <g id="matplotlib.axis_1">
    <g id="xtick_1">
     <g id="line2d_1">
      <defs>
       <path id="mecd1482e5a" d="M 0 0 
L 0 3.5 
" style="stroke: #000000; stroke-width: 0.8"/>
      </defs>
      <g>
       <use xlink:href="#mecd1482e5a" x="61.230682" y="224.64" style="stroke: #000000; stroke-width: 0.8"/>
      </g>
     </g>
     <g id="text_1">
      <!-- 20 -->
      <g transform="translate(54.868182 239.238437)scale(0.1 -0.1)">
       <defs>
        <path id="DejaVuSans-32" d="M 1228 531 
L 3431 531 
L 3431 0 
L 469 0 
L 469 531 
Q 828 903 1448 1529 
Q 2069 2156 2228 2338 
Q 2531 2678 2651 2914 
Q 2772 3150 2772 3378 
Q 2772 3750 2511 3984 
Q 2250 4219 1831 4219 
Q 1534 4219 1204 4116 
Q 875 4013 500 3803 
L 500 4441 
Q 881 4594 1212 4672 
Q 1544 4750 1819 4750 
Q 2544 4750 2975 4387 
Q 3406 4025 3406 3419 
Q 3406 3131 3298 2873 
Q 3191 2616 2906 2266 
Q 2828 2175 2409 1742 
Q 1991 1309 1228 531 
z
" transform="scale(0.015625)"/>
        <path id="DejaVuSans-30" d="M 2034 4250 
Q 1547 4250 1301 3770 
Q 1056 3291 1056 2328 
Q 1056 1369 1301 889 
Q 1547 409 2034 409 
Q 2525 409 2770 889 
Q 3016 1369 3016 2328 
Q 3016 3291 2770 3770 
Q 2525 4250 2034 4250 
z
M 2034 4750 
Q 2819 4750 3233 4129 
Q 3647 3509 3647 2328 
Q 3647 1150 3233 529 
Q 2819 -91 2034 -91 
Q 1250 -91 836 529 
Q 422 1150 422 2328 
Q 422 3509 836 4129 
Q 1250 4750 2034 4750 
z
" transform="scale(0.015625)"/>
       </defs>
       <use xlink:href="#DejaVuSans-32"/>
       <use xlink:href="#DejaVuSans-30" x="63.623047"/>
      </g>
     </g>
    </g>
    <g id="xtick_2">
     <g id="line2d_2">
      <g>
       <use xlink:href="#mecd1482e5a" x="99.276136" y="224.64" style="stroke: #000000; stroke-width: 0.8"/>
      </g>
     </g>
     <g id="text_2">
      <!-- 30 -->
      <g transform="translate(92.913636 239.238437)scale(0.1 -0.1)">
       <defs>
        <path id="DejaVuSans-33" d="M 2597 2516 
Q 3050 2419 3304 2112 
Q 3559 1806 3559 1356 
Q 3559 666 3084 287 
Q 2609 -91 1734 -91 
Q 1441 -91 1130 -33 
Q 819 25 488 141 
L 488 750 
Q 750 597 1062 519 
Q 1375 441 1716 441 
Q 2309 441 2620 675 
Q 2931 909 2931 1356 
Q 2931 1769 2642 2001 
Q 2353 2234 1838 2234 
L 1294 2234 
L 1294 2753 
L 1863 2753 
Q 2328 2753 2575 2939 
Q 2822 3125 2822 3475 
Q 2822 3834 2567 4026 
Q 2313 4219 1838 4219 
Q 1578 4219 1281 4162 
Q 984 4106 628 3988 
L 628 4550 
Q 988 4650 1302 4700 
Q 1616 4750 1894 4750 
Q 2613 4750 3031 4423 
Q 3450 4097 3450 3541 
Q 3450 3153 3228 2886 
Q 3006 2619 2597 2516 
z
" transform="scale(0.015625)"/>
       </defs>
       <use xlink:href="#DejaVuSans-33"/>
       <use xlink:href="#DejaVuSans-30" x="63.623047"/>
      </g>
     </g>
    </g>
    <g id="xtick_3">
     <g id="line2d_3">
      <g>
       <use xlink:href="#mecd1482e5a" x="137.321591" y="224.64" style="stroke: #000000; stroke-width: 0.8"/>
      </g>
     </g>
     <g id="text_3">
      <!-- 40 -->
      <g transform="translate(130.959091 239.238437)scale(0.1 -0.1)">
       <defs>
        <path id="DejaVuSans-34" d="M 2419 4116 
L 825 1625 
L 2419 1625 
L 2419 4116 
z
M 2253 4666 
L 3047 4666 
L 3047 1625 
L 3713 1625 
L 3713 1100 
L 3047 1100 
L 3047 0 
L 2419 0 
L 2419 1100 
L 313 1100 
L 313 1709 
L 2253 4666 
z
" transform="scale(0.015625)"/>
       </defs>
       <use xlink:href="#DejaVuSans-34"/>
       <use xlink:href="#DejaVuSans-30" x="63.623047"/>
      </g>
     </g>
    </g>
    <g id="xtick_4">
     <g id="line2d_4">
      <g>
       <use xlink:href="#mecd1482e5a" x="175.367045" y="224.64" style="stroke: #000000; stroke-width: 0.8"/>
      </g>
     </g>
     <g id="text_4">
      <!-- 50 -->
      <g transform="translate(169.004545 239.238437)scale(0.1 -0.1)">
       <defs>
        <path id="DejaVuSans-35" d="M 691 4666 
L 3169 4666 
L 3169 4134 
L 1269 4134 
L 1269 2991 
Q 1406 3038 1543 3061 
Q 1681 3084 1819 3084 
Q 2600 3084 3056 2656 
Q 3513 2228 3513 1497 
Q 3513 744 3044 326 
Q 2575 -91 1722 -91 
Q 1428 -91 1123 -41 
Q 819 9 494 109 
L 494 744 
Q 775 591 1075 516 
Q 1375 441 1709 441 
Q 2250 441 2565 725 
Q 2881 1009 2881 1497 
Q 2881 1984 2565 2268 
Q 2250 2553 1709 2553 
Q 1456 2553 1204 2497 
Q 953 2441 691 2322 
L 691 4666 
z
" transform="scale(0.015625)"/>
       </defs>
       <use xlink:href="#DejaVuSans-35"/>
       <use xlink:href="#DejaVuSans-30" x="63.623047"/>
      </g>
     </g>
    </g>
    <g id="xtick_5">
     <g id="line2d_5">
      <g>
       <use xlink:href="#mecd1482e5a" x="213.4125" y="224.64" style="stroke: #000000; stroke-width: 0.8"/>
      </g>
     </g>
     <g id="text_5">
      <!-- 60 -->
      <g transform="translate(207.05 239.238437)scale(0.1 -0.1)">
       <defs>
        <path id="DejaVuSans-36" d="M 2113 2584 
Q 1688 2584 1439 2293 
Q 1191 2003 1191 1497 
Q 1191 994 1439 701 
Q 1688 409 2113 409 
Q 2538 409 2786 701 
Q 3034 994 3034 1497 
Q 3034 2003 2786 2293 
Q 2538 2584 2113 2584 
z
M 3366 4563 
L 3366 3988 
Q 3128 4100 2886 4159 
Q 2644 4219 2406 4219 
Q 1781 4219 1451 3797 
Q 1122 3375 1075 2522 
Q 1259 2794 1537 2939 
Q 1816 3084 2150 3084 
Q 2853 3084 3261 2657 
Q 3669 2231 3669 1497 
Q 3669 778 3244 343 
Q 2819 -91 2113 -91 
Q 1303 -91 875 529 
Q 447 1150 447 2328 
Q 447 3434 972 4092 
Q 1497 4750 2381 4750 
Q 2619 4750 2861 4703 
Q 3103 4656 3366 4563 
z
" transform="scale(0.015625)"/>
       </defs>
       <use xlink:href="#DejaVuSans-36"/>
       <use xlink:href="#DejaVuSans-30" x="63.623047"/>
      </g>
     </g>
    </g>
    <g id="xtick_6">
     <g id="line2d_6">
      <g>
       <use xlink:href="#mecd1482e5a" x="251.457955" y="224.64" style="stroke: #000000; stroke-width: 0.8"/>
      </g>
     </g>
     <g id="text_6">
      <!-- 70 -->
      <g transform="translate(245.095455 239.238437)scale(0.1 -0.1)">
       <defs>
        <path id="DejaVuSans-37" d="M 525 4666 
L 3525 4666 
L 3525 4397 
L 1831 0 
L 1172 0 
L 2766 4134 
L 525 4134 
L 525 4666 
z
" transform="scale(0.015625)"/>
       </defs>
       <use xlink:href="#DejaVuSans-37"/>
       <use xlink:href="#DejaVuSans-30" x="63.623047"/>
      </g>
     </g>
    </g>
    <g id="xtick_7">
     <g id="line2d_7">
      <g>
       <use xlink:href="#mecd1482e5a" x="289.503409" y="224.64" style="stroke: #000000; stroke-width: 0.8"/>
      </g>
     </g>
     <g id="text_7">
      <!-- 80 -->
      <g transform="translate(283.140909 239.238437)scale(0.1 -0.1)">
       <defs>
        <path id="DejaVuSans-38" d="M 2034 2216 
Q 1584 2216 1326 1975 
Q 1069 1734 1069 1313 
Q 1069 891 1326 650 
Q 1584 409 2034 409 
Q 2484 409 2743 651 
Q 3003 894 3003 1313 
Q 3003 1734 2745 1975 
Q 2488 2216 2034 2216 
z
M 1403 2484 
Q 997 2584 770 2862 
Q 544 3141 544 3541 
Q 544 4100 942 4425 
Q 1341 4750 2034 4750 
Q 2731 4750 3128 4425 
Q 3525 4100 3525 3541 
Q 3525 3141 3298 2862 
Q 3072 2584 2669 2484 
Q 3125 2378 3379 2068 
Q 3634 1759 3634 1313 
Q 3634 634 3220 271 
Q 2806 -91 2034 -91 
Q 1263 -91 848 271 
Q 434 634 434 1313 
Q 434 1759 690 2068 
Q 947 2378 1403 2484 
z
M 1172 3481 
Q 1172 3119 1398 2916 
Q 1625 2713 2034 2713 
Q 2441 2713 2670 2916 
Q 2900 3119 2900 3481 
Q 2900 3844 2670 4047 
Q 2441 4250 2034 4250 
Q 1625 4250 1398 4047 
Q 1172 3844 1172 3481 
z
" transform="scale(0.015625)"/>
       </defs>
       <use xlink:href="#DejaVuSans-38"/>
       <use xlink:href="#DejaVuSans-30" x="63.623047"/>
      </g>
     </g>
    </g>
    <g id="xtick_8">
     <g id="line2d_8">
      <g>
       <use xlink:href="#mecd1482e5a" x="327.548864" y="224.64" style="stroke: #000000; stroke-width: 0.8"/>
      </g>
     </g>
     <g id="text_8">
      <!-- 90 -->
      <g transform="translate(321.186364 239.238437)scale(0.1 -0.1)">
       <defs>
        <path id="DejaVuSans-39" d="M 703 97 
L 703 672 
Q 941 559 1184 500 
Q 1428 441 1663 441 
Q 2288 441 2617 861 
Q 2947 1281 2994 2138 
Q 2813 1869 2534 1725 
Q 2256 1581 1919 1581 
Q 1219 1581 811 2004 
Q 403 2428 403 3163 
Q 403 3881 828 4315 
Q 1253 4750 1959 4750 
Q 2769 4750 3195 4129 
Q 3622 3509 3622 2328 
Q 3622 1225 3098 567 
Q 2575 -91 1691 -91 
Q 1453 -91 1209 -44 
Q 966 3 703 97 
z
M 1959 2075 
Q 2384 2075 2632 2365 
Q 2881 2656 2881 3163 
Q 2881 3666 2632 3958 
Q 2384 4250 1959 4250 
Q 1534 4250 1286 3958 
Q 1038 3666 1038 3163 
Q 1038 2656 1286 2365 
Q 1534 2075 1959 2075 
z
" transform="scale(0.015625)"/>
       </defs>
       <use xlink:href="#DejaVuSans-39"/>
       <use xlink:href="#DejaVuSans-30" x="63.623047"/>
      </g>
     </g>
    </g>
    <g id="xtick_9">
     <g id="line2d_9">
      <g>
       <use xlink:href="#mecd1482e5a" x="365.594318" y="224.64" style="stroke: #000000; stroke-width: 0.8"/>
      </g>
     </g>
     <g id="text_9">
      <!-- 100 -->
      <g transform="translate(356.050568 239.238437)scale(0.1 -0.1)">
       <defs>
        <path id="DejaVuSans-31" d="M 794 531 
L 1825 531 
L 1825 4091 
L 703 3866 
L 703 4441 
L 1819 4666 
L 2450 4666 
L 2450 531 
L 3481 531 
L 3481 0 
L 794 0 
L 794 531 
z
" transform="scale(0.015625)"/>
       </defs>
       <use xlink:href="#DejaVuSans-31"/>
       <use xlink:href="#DejaVuSans-30" x="63.623047"/>
       <use xlink:href="#DejaVuSans-30" x="127.246094"/>
      </g>
     </g>
    </g>
    <g id="text_10">
     <!-- pt -->
     <g transform="translate(208.278125 252.916562)scale(0.1 -0.1)">
      <defs>
       <path id="DejaVuSans-70" d="M 1159 525 
L 1159 -1331 
L 581 -1331 
L 581 3500 
L 1159 3500 
L 1159 2969 
Q 1341 3281 1617 3432 
Q 1894 3584 2278 3584 
Q 2916 3584 3314 3078 
Q 3713 2572 3713 1747 
Q 3713 922 3314 415 
Q 2916 -91 2278 -91 
Q 1894 -91 1617 61 
Q 1341 213 1159 525 
z
M 3116 1747 
Q 3116 2381 2855 2742 
Q 2594 3103 2138 3103 
Q 1681 3103 1420 2742 
Q 1159 2381 1159 1747 
Q 1159 1113 1420 752 
Q 1681 391 2138 391 
Q 2594 391 2855 752 
Q 3116 1113 3116 1747 
z
" transform="scale(0.015625)"/>
       <path id="DejaVuSans-74" d="M 1172 4494 
L 1172 3500 
L 2356 3500 
L 2356 3053 
L 1172 3053 
L 1172 1153 
Q 1172 725 1289 603 
Q 1406 481 1766 481 
L 2356 481 
L 2356 0 
L 1766 0 
Q 1100 0 847 248 
Q 594 497 594 1153 
L 594 3053 
L 172 3053 
L 172 3500 
L 594 3500 
L 594 4494 
L 1172 4494 
z
" transform="scale(0.015625)"/>
      </defs>
      <use xlink:href="#DejaVuSans-70"/>
      <use xlink:href="#DejaVuSans-74" x="63.476562"/>
     </g>
    </g>
   </g>
   <g id="matplotlib.axis_2">
    <g id="ytick_1">
     <g id="line2d_10">
      <defs>
       <path id="m8928a984f2" d="M 0 0 
L -3.5 0 
" style="stroke: #000000; stroke-width: 0.8"/>
      </defs>
      <g>
       <use xlink:href="#m8928a984f2" x="46.0125" y="224.64" style="stroke: #000000; stroke-width: 0.8"/>
      </g>
     </g>
     <g id="text_11">
      <!-- 0 -->
      <g transform="translate(32.65 228.439219)scale(0.1 -0.1)">
       <use xlink:href="#DejaVuSans-30"/>
      </g>
     </g>
    </g>
    <g id="ytick_2">
     <g id="line2d_11">
      <g>
       <use xlink:href="#m8928a984f2" x="46.0125" y="180.043086" style="stroke: #000000; stroke-width: 0.8"/>
      </g>
     </g>
     <g id="text_12">
      <!-- 10000 -->
      <g transform="translate(7.2 183.842305)scale(0.1 -0.1)">
       <use xlink:href="#DejaVuSans-31"/>
       <use xlink:href="#DejaVuSans-30" x="63.623047"/>
       <use xlink:href="#DejaVuSans-30" x="127.246094"/>
       <use xlink:href="#DejaVuSans-30" x="190.869141"/>
       <use xlink:href="#DejaVuSans-30" x="254.492188"/>
      </g>
     </g>
    </g>
    <g id="ytick_3">
     <g id="line2d_12">
      <g>
       <use xlink:href="#m8928a984f2" x="46.0125" y="135.446172" style="stroke: #000000; stroke-width: 0.8"/>
      </g>
     </g>
     <g id="text_13">
      <!-- 20000 -->
      <g transform="translate(7.2 139.245391)scale(0.1 -0.1)">
       <use xlink:href="#DejaVuSans-32"/>
       <use xlink:href="#DejaVuSans-30" x="63.623047"/>
       <use xlink:href="#DejaVuSans-30" x="127.246094"/>
       <use xlink:href="#DejaVuSans-30" x="190.869141"/>
       <use xlink:href="#DejaVuSans-30" x="254.492188"/>
      </g>
     </g>
    </g>
    <g id="ytick_4">
     <g id="line2d_13">
      <g>
       <use xlink:href="#m8928a984f2" x="46.0125" y="90.849258" style="stroke: #000000; stroke-width: 0.8"/>
      </g>
     </g>
     <g id="text_14">
      <!-- 30000 -->
      <g transform="translate(7.2 94.648477)scale(0.1 -0.1)">
       <use xlink:href="#DejaVuSans-33"/>
       <use xlink:href="#DejaVuSans-30" x="63.623047"/>
       <use xlink:href="#DejaVuSans-30" x="127.246094"/>
       <use xlink:href="#DejaVuSans-30" x="190.869141"/>
       <use xlink:href="#DejaVuSans-30" x="254.492188"/>
      </g>
     </g>
    </g>
    <g id="ytick_5">
     <g id="line2d_14">
      <g>
       <use xlink:href="#m8928a984f2" x="46.0125" y="46.252344" style="stroke: #000000; stroke-width: 0.8"/>
      </g>
     </g>
     <g id="text_15">
      <!-- 40000 -->
      <g transform="translate(7.2 50.051563)scale(0.1 -0.1)">
       <use xlink:href="#DejaVuSans-34"/>
       <use xlink:href="#DejaVuSans-30" x="63.623047"/>
       <use xlink:href="#DejaVuSans-30" x="127.246094"/>
       <use xlink:href="#DejaVuSans-30" x="190.869141"/>
       <use xlink:href="#DejaVuSans-30" x="254.492188"/>
      </g>
     </g>
    </g>
   </g>
   <g id="LineCollection_1">
    <path d="M 62.7525 193.910534 
L 62.7525 193.161204 
" clip-path="url(#p66de288346)" style="fill: none; stroke: #1f77b4; stroke-width: 1.5"/>
    <path d="M 65.796136 194.943368 
L 65.796136 194.206586 
" clip-path="url(#p66de288346)" style="fill: none; stroke: #1f77b4; stroke-width: 1.5"/>
    <path d="M 68.839773 194.7572 
L 68.839773 194.01814 
" clip-path="url(#p66de288346)" style="fill: none; stroke: #1f77b4; stroke-width: 1.5"/>
    <path d="M 71.883409 195.931772 
L 71.883409 195.207204 
" clip-path="url(#p66de288346)" style="fill: none; stroke: #1f77b4; stroke-width: 1.5"/>
    <path d="M 74.927045 195.147262 
L 74.927045 194.412983 
" clip-path="url(#p66de288346)" style="fill: none; stroke: #1f77b4; stroke-width: 1.5"/>
    <path d="M 77.970682 196.246443 
L 77.970682 195.525808 
" clip-path="url(#p66de288346)" style="fill: none; stroke: #1f77b4; stroke-width: 1.5"/>
    <path d="M 81.014318 196.543377 
L 81.014318 195.826473 
" clip-path="url(#p66de288346)" style="fill: none; stroke: #1f77b4; stroke-width: 1.5"/>
    <path d="M 84.057955 197.301178 
L 84.057955 196.593886 
" clip-path="url(#p66de288346)" style="fill: none; stroke: #1f77b4; stroke-width: 1.5"/>
    <path d="M 87.101591 197.770893 
L 87.101591 197.069626 
" clip-path="url(#p66de288346)" style="fill: none; stroke: #1f77b4; stroke-width: 1.5"/>
    <path d="M 90.145227 197.642388 
L 90.145227 196.939468 
" clip-path="url(#p66de288346)" style="fill: none; stroke: #1f77b4; stroke-width: 1.5"/>
    <path d="M 93.188864 198.160824 
L 93.188864 197.4646 
" clip-path="url(#p66de288346)" style="fill: none; stroke: #1f77b4; stroke-width: 1.5"/>
    <path d="M 96.2325 198.617198 
L 96.2325 197.926922 
" clip-path="url(#p66de288346)" style="fill: none; stroke: #1f77b4; stroke-width: 1.5"/>
    <path d="M 99.276136 198.905188 
L 99.276136 198.218692 
" clip-path="url(#p66de288346)" style="fill: none; stroke: #1f77b4; stroke-width: 1.5"/>
    <path d="M 102.319773 199.870983 
L 102.319773 199.197322 
" clip-path="url(#p66de288346)" style="fill: none; stroke: #1f77b4; stroke-width: 1.5"/>
    <path d="M 105.363409 200.544308 
L 105.363409 199.879743 
" clip-path="url(#p66de288346)" style="fill: none; stroke: #1f77b4; stroke-width: 1.5"/>
    <path d="M 108.407045 200.721488 
L 108.407045 200.059338 
" clip-path="url(#p66de288346)" style="fill: none; stroke: #1f77b4; stroke-width: 1.5"/>
    <path d="M 111.450682 201.075835 
L 111.450682 200.418542 
" clip-path="url(#p66de288346)" style="fill: none; stroke: #1f77b4; stroke-width: 1.5"/>
    <path d="M 114.494318 201.57189 
L 114.494318 200.921457 
" clip-path="url(#p66de288346)" style="fill: none; stroke: #1f77b4; stroke-width: 1.5"/>
    <path d="M 117.537955 201.474453 
L 117.537955 200.822667 
" clip-path="url(#p66de288346)" style="fill: none; stroke: #1f77b4; stroke-width: 1.5"/>
    <path d="M 120.581591 201.979336 
L 120.581591 201.334594 
" clip-path="url(#p66de288346)" style="fill: none; stroke: #1f77b4; stroke-width: 1.5"/>
    <path d="M 123.625227 202.43104 
L 123.625227 201.792666 
" clip-path="url(#p66de288346)" style="fill: none; stroke: #1f77b4; stroke-width: 1.5"/>
    <path d="M 126.668864 202.785296 
L 126.668864 202.151961 
" clip-path="url(#p66de288346)" style="fill: none; stroke: #1f77b4; stroke-width: 1.5"/>
    <path d="M 129.7125 203.241369 
L 129.7125 202.614584 
" clip-path="url(#p66de288346)" style="fill: none; stroke: #1f77b4; stroke-width: 1.5"/>
    <path d="M 132.756136 203.608859 
L 132.756136 202.987402 
" clip-path="url(#p66de288346)" style="fill: none; stroke: #1f77b4; stroke-width: 1.5"/>
    <path d="M 135.799773 203.998462 
L 135.799773 203.382705 
" clip-path="url(#p66de288346)" style="fill: none; stroke: #1f77b4; stroke-width: 1.5"/>
    <path d="M 138.843409 204.087005 
L 138.843409 203.47255 
" clip-path="url(#p66de288346)" style="fill: none; stroke: #1f77b4; stroke-width: 1.5"/>
    <path d="M 141.887045 204.790866 
L 141.887045 204.18687 
" clip-path="url(#p66de288346)" style="fill: none; stroke: #1f77b4; stroke-width: 1.5"/>
    <path d="M 144.930682 205.414968 
L 144.930682 204.8204 
" clip-path="url(#p66de288346)" style="fill: none; stroke: #1f77b4; stroke-width: 1.5"/>
    <path d="M 147.974318 204.144556 
L 147.974318 203.53095 
" clip-path="url(#p66de288346)" style="fill: none; stroke: #1f77b4; stroke-width: 1.5"/>
    <path d="M 151.017955 205.229073 
L 151.017955 204.631681 
" clip-path="url(#p66de288346)" style="fill: none; stroke: #1f77b4; stroke-width: 1.5"/>
    <path d="M 154.061591 205.733629 
L 154.061591 205.143935 
" clip-path="url(#p66de288346)" style="fill: none; stroke: #1f77b4; stroke-width: 1.5"/>
    <path d="M 157.105227 205.932781 
L 157.105227 205.346154 
" clip-path="url(#p66de288346)" style="fill: none; stroke: #1f77b4; stroke-width: 1.5"/>
    <path d="M 160.148864 206.189455 
L 160.148864 205.606804 
" clip-path="url(#p66de288346)" style="fill: none; stroke: #1f77b4; stroke-width: 1.5"/>
    <path d="M 163.1925 206.397439 
L 163.1925 205.818031 
" clip-path="url(#p66de288346)" style="fill: none; stroke: #1f77b4; stroke-width: 1.5"/>
    <path d="M 166.236136 206.654088 
L 166.236136 206.078706 
" clip-path="url(#p66de288346)" style="fill: none; stroke: #1f77b4; stroke-width: 1.5"/>
    <path d="M 169.279773 206.981515 
L 169.279773 206.411313 
" clip-path="url(#p66de288346)" style="fill: none; stroke: #1f77b4; stroke-width: 1.5"/>
    <path d="M 172.323409 207.326615 
L 172.323409 206.761924 
" clip-path="url(#p66de288346)" style="fill: none; stroke: #1f77b4; stroke-width: 1.5"/>
    <path d="M 175.367045 207.972498 
L 175.367045 207.418271 
" clip-path="url(#p66de288346)" style="fill: none; stroke: #1f77b4; stroke-width: 1.5"/>
    <path d="M 178.410682 207.972498 
L 178.410682 207.418271 
" clip-path="url(#p66de288346)" style="fill: none; stroke: #1f77b4; stroke-width: 1.5"/>
    <path d="M 181.454318 208.702311 
L 181.454318 208.160155 
" clip-path="url(#p66de288346)" style="fill: none; stroke: #1f77b4; stroke-width: 1.5"/>
    <path d="M 184.497955 208.472324 
L 184.497955 207.926335 
" clip-path="url(#p66de288346)" style="fill: none; stroke: #1f77b4; stroke-width: 1.5"/>
    <path d="M 187.541591 208.874793 
L 187.541591 208.335529 
" clip-path="url(#p66de288346)" style="fill: none; stroke: #1f77b4; stroke-width: 1.5"/>
    <path d="M 190.585227 208.83499 
L 190.585227 208.295058 
" clip-path="url(#p66de288346)" style="fill: none; stroke: #1f77b4; stroke-width: 1.5"/>
    <path d="M 193.628864 208.914595 
L 193.628864 208.376001 
" clip-path="url(#p66de288346)" style="fill: none; stroke: #1f77b4; stroke-width: 1.5"/>
    <path d="M 196.6725 209.546952 
L 196.6725 209.019116 
" clip-path="url(#p66de288346)" style="fill: none; stroke: #1f77b4; stroke-width: 1.5"/>
    <path d="M 199.716136 209.86972 
L 199.716136 209.347462 
" clip-path="url(#p66de288346)" style="fill: none; stroke: #1f77b4; stroke-width: 1.5"/>
    <path d="M 202.759773 210.086356 
L 202.759773 209.567876 
" clip-path="url(#p66de288346)" style="fill: none; stroke: #1f77b4; stroke-width: 1.5"/>
    <path d="M 205.803409 210.603572 
L 205.803409 210.094227 
" clip-path="url(#p66de288346)" style="fill: none; stroke: #1f77b4; stroke-width: 1.5"/>
    <path d="M 208.847045 210.329501 
L 208.847045 209.815296 
" clip-path="url(#p66de288346)" style="fill: none; stroke: #1f77b4; stroke-width: 1.5"/>
    <path d="M 211.890682 210.912977 
L 211.890682 210.409178 
" clip-path="url(#p66de288346)" style="fill: none; stroke: #1f77b4; stroke-width: 1.5"/>
    <path d="M 214.934318 211.116284 
L 214.934318 210.616162 
" clip-path="url(#p66de288346)" style="fill: none; stroke: #1f77b4; stroke-width: 1.5"/>
    <path d="M 217.977955 211.284222 
L 217.977955 210.78716 
" clip-path="url(#p66de288346)" style="fill: none; stroke: #1f77b4; stroke-width: 1.5"/>
    <path d="M 221.021591 211.611233 
L 221.021591 211.120183 
" clip-path="url(#p66de288346)" style="fill: none; stroke: #1f77b4; stroke-width: 1.5"/>
    <path d="M 224.065227 211.646583 
L 224.065227 211.156188 
" clip-path="url(#p66de288346)" style="fill: none; stroke: #1f77b4; stroke-width: 1.5"/>
    <path d="M 227.108864 211.765887 
L 227.108864 211.277707 
" clip-path="url(#p66de288346)" style="fill: none; stroke: #1f77b4; stroke-width: 1.5"/>
    <path d="M 230.1525 211.973552 
L 230.1525 211.489253 
" clip-path="url(#p66de288346)" style="fill: none; stroke: #1f77b4; stroke-width: 1.5"/>
    <path d="M 233.196136 212.022153 
L 233.196136 211.538766 
" clip-path="url(#p66de288346)" style="fill: none; stroke: #1f77b4; stroke-width: 1.5"/>
    <path d="M 236.239773 212.313735 
L 236.239773 211.835862 
" clip-path="url(#p66de288346)" style="fill: none; stroke: #1f77b4; stroke-width: 1.5"/>
    <path d="M 239.283409 212.574365 
L 239.283409 212.101475 
" clip-path="url(#p66de288346)" style="fill: none; stroke: #1f77b4; stroke-width: 1.5"/>
    <path d="M 242.327045 213.122041 
L 242.327045 212.659802 
" clip-path="url(#p66de288346)" style="fill: none; stroke: #1f77b4; stroke-width: 1.5"/>
    <path d="M 245.370682 213.320763 
L 245.370682 212.862451 
" clip-path="url(#p66de288346)" style="fill: none; stroke: #1f77b4; stroke-width: 1.5"/>
    <path d="M 248.414318 213.183868 
L 248.414318 212.722846 
" clip-path="url(#p66de288346)" style="fill: none; stroke: #1f77b4; stroke-width: 1.5"/>
    <path d="M 251.457955 213.179451 
L 251.457955 212.718343 
" clip-path="url(#p66de288346)" style="fill: none; stroke: #1f77b4; stroke-width: 1.5"/>
    <path d="M 254.501591 213.559208 
L 254.501591 213.105653 
" clip-path="url(#p66de288346)" style="fill: none; stroke: #1f77b4; stroke-width: 1.5"/>
    <path d="M 257.545227 213.431157 
L 257.545227 212.975041 
" clip-path="url(#p66de288346)" style="fill: none; stroke: #1f77b4; stroke-width: 1.5"/>
    <path d="M 260.588864 213.779967 
L 260.588864 213.330863 
" clip-path="url(#p66de288346)" style="fill: none; stroke: #1f77b4; stroke-width: 1.5"/>
    <path d="M 263.6325 213.881508 
L 263.6325 213.434467 
" clip-path="url(#p66de288346)" style="fill: none; stroke: #1f77b4; stroke-width: 1.5"/>
    <path d="M 266.676136 214.115477 
L 266.676136 213.673225 
" clip-path="url(#p66de288346)" style="fill: none; stroke: #1f77b4; stroke-width: 1.5"/>
    <path d="M 269.719773 214.464173 
L 269.719773 214.029159 
" clip-path="url(#p66de288346)" style="fill: none; stroke: #1f77b4; stroke-width: 1.5"/>
    <path d="M 272.763409 214.803982 
L 272.763409 214.376142 
" clip-path="url(#p66de288346)" style="fill: none; stroke: #1f77b4; stroke-width: 1.5"/>
    <path d="M 275.807045 214.380315 
L 275.807045 213.943549 
" clip-path="url(#p66de288346)" style="fill: none; stroke: #1f77b4; stroke-width: 1.5"/>
    <path d="M 278.850682 214.446519 
L 278.850682 214.011135 
" clip-path="url(#p66de288346)" style="fill: none; stroke: #1f77b4; stroke-width: 1.5"/>
    <path d="M 281.894318 215.095198 
L 281.894318 214.673604 
" clip-path="url(#p66de288346)" style="fill: none; stroke: #1f77b4; stroke-width: 1.5"/>
    <path d="M 284.937955 215.293727 
L 284.937955 214.876447 
" clip-path="url(#p66de288346)" style="fill: none; stroke: #1f77b4; stroke-width: 1.5"/>
    <path d="M 287.981591 215.33343 
L 287.981591 214.917018 
" clip-path="url(#p66de288346)" style="fill: none; stroke: #1f77b4; stroke-width: 1.5"/>
    <path d="M 291.025227 215.73482 
L 291.025227 215.327291 
" clip-path="url(#p66de288346)" style="fill: none; stroke: #1f77b4; stroke-width: 1.5"/>
    <path d="M 294.068864 215.871535 
L 294.068864 215.467077 
" clip-path="url(#p66de288346)" style="fill: none; stroke: #1f77b4; stroke-width: 1.5"/>
    <path d="M 297.1125 215.673074 
L 297.1125 215.264166 
" clip-path="url(#p66de288346)" style="fill: none; stroke: #1f77b4; stroke-width: 1.5"/>
    <path d="M 300.156136 215.708358 
L 300.156136 215.300237 
" clip-path="url(#p66de288346)" style="fill: none; stroke: #1f77b4; stroke-width: 1.5"/>
    <path d="M 303.199773 216.400639 
L 303.199773 216.008297 
" clip-path="url(#p66de288346)" style="fill: none; stroke: #1f77b4; stroke-width: 1.5"/>
    <path d="M 306.243409 216.616635 
L 306.243409 216.229351 
" clip-path="url(#p66de288346)" style="fill: none; stroke: #1f77b4; stroke-width: 1.5"/>
    <path d="M 309.287045 216.255154 
L 309.287045 215.859443 
" clip-path="url(#p66de288346)" style="fill: none; stroke: #1f77b4; stroke-width: 1.5"/>
    <path d="M 312.330682 216.563741 
L 312.330682 216.175212 
" clip-path="url(#p66de288346)" style="fill: none; stroke: #1f77b4; stroke-width: 1.5"/>
    <path d="M 315.374318 215.972961 
L 315.374318 215.570796 
" clip-path="url(#p66de288346)" style="fill: none; stroke: #1f77b4; stroke-width: 1.5"/>
    <path d="M 318.417955 216.594596 
L 318.417955 216.206793 
" clip-path="url(#p66de288346)" style="fill: none; stroke: #1f77b4; stroke-width: 1.5"/>
    <path d="M 321.461591 216.837003 
L 321.461591 216.45495 
" clip-path="url(#p66de288346)" style="fill: none; stroke: #1f77b4; stroke-width: 1.5"/>
    <path d="M 324.505227 217.264412 
L 324.505227 216.89272 
" clip-path="url(#p66de288346)" style="fill: none; stroke: #1f77b4; stroke-width: 1.5"/>
    <path d="M 327.548864 217.229167 
L 327.548864 216.85661 
" clip-path="url(#p66de288346)" style="fill: none; stroke: #1f77b4; stroke-width: 1.5"/>
    <path d="M 330.5925 216.885479 
L 330.5925 216.504587 
" clip-path="url(#p66de288346)" style="fill: none; stroke: #1f77b4; stroke-width: 1.5"/>
    <path d="M 333.636136 217.343709 
L 333.636136 216.973972 
" clip-path="url(#p66de288346)" style="fill: none; stroke: #1f77b4; stroke-width: 1.5"/>
    <path d="M 336.679773 217.453835 
L 336.679773 217.08683 
" clip-path="url(#p66de288346)" style="fill: none; stroke: #1f77b4; stroke-width: 1.5"/>
    <path d="M 339.723409 217.392166 
L 339.723409 217.023628 
" clip-path="url(#p66de288346)" style="fill: none; stroke: #1f77b4; stroke-width: 1.5"/>
    <path d="M 342.767045 217.933859 
L 342.767045 217.579017 
" clip-path="url(#p66de288346)" style="fill: none; stroke: #1f77b4; stroke-width: 1.5"/>
    <path d="M 345.810682 217.964679 
L 345.810682 217.610633 
" clip-path="url(#p66de288346)" style="fill: none; stroke: #1f77b4; stroke-width: 1.5"/>
    <path d="M 348.854318 217.889828 
L 348.854318 217.533854 
" clip-path="url(#p66de288346)" style="fill: none; stroke: #1f77b4; stroke-width: 1.5"/>
    <path d="M 351.897955 217.907441 
L 351.897955 217.551919 
" clip-path="url(#p66de288346)" style="fill: none; stroke: #1f77b4; stroke-width: 1.5"/>
    <path d="M 354.941591 217.907441 
L 354.941591 217.551919 
" clip-path="url(#p66de288346)" style="fill: none; stroke: #1f77b4; stroke-width: 1.5"/>
    <path d="M 357.985227 217.9999 
L 357.985227 217.646766 
" clip-path="url(#p66de288346)" style="fill: none; stroke: #1f77b4; stroke-width: 1.5"/>
    <path d="M 361.028864 218.360852 
L 361.028864 218.017202 
" clip-path="url(#p66de288346)" style="fill: none; stroke: #1f77b4; stroke-width: 1.5"/>
    <path d="M 364.0725 218.770059 
L 364.0725 218.437496 
" clip-path="url(#p66de288346)" style="fill: none; stroke: #1f77b4; stroke-width: 1.5"/>
   </g>
   <g id="LineCollection_2"/>
   <g id="LineCollection_3"/>
   <g id="LineCollection_4">
    <path d="M 62.7525 19.476292 
L 62.7525 17.554286 
" clip-path="url(#p66de288346)" style="fill: none; stroke: #ff7f0e; stroke-width: 1.5"/>
    <path d="M 65.796136 22.755409 
L 65.796136 20.848753 
" clip-path="url(#p66de288346)" style="fill: none; stroke: #ff7f0e; stroke-width: 1.5"/>
    <path d="M 68.839773 26.305862 
L 68.839773 24.415967 
" clip-path="url(#p66de288346)" style="fill: none; stroke: #ff7f0e; stroke-width: 1.5"/>
    <path d="M 71.883409 28.735077 
L 71.883409 26.856736 
" clip-path="url(#p66de288346)" style="fill: none; stroke: #ff7f0e; stroke-width: 1.5"/>
    <path d="M 74.927045 32.196422 
L 74.927045 30.33467 
" clip-path="url(#p66de288346)" style="fill: none; stroke: #ff7f0e; stroke-width: 1.5"/>
    <path d="M 77.970682 36.525223 
L 77.970682 34.684428 
" clip-path="url(#p66de288346)" style="fill: none; stroke: #ff7f0e; stroke-width: 1.5"/>
    <path d="M 81.014318 38.905345 
L 81.014318 37.076176 
" clip-path="url(#p66de288346)" style="fill: none; stroke: #ff7f0e; stroke-width: 1.5"/>
    <path d="M 84.057955 41.049648 
L 84.057955 39.231016 
" clip-path="url(#p66de288346)" style="fill: none; stroke: #ff7f0e; stroke-width: 1.5"/>
    <path d="M 87.101591 45.244739 
L 87.101591 43.446903 
" clip-path="url(#p66de288346)" style="fill: none; stroke: #ff7f0e; stroke-width: 1.5"/>
    <path d="M 90.145227 47.557993 
L 90.145227 45.771728 
" clip-path="url(#p66de288346)" style="fill: none; stroke: #ff7f0e; stroke-width: 1.5"/>
    <path d="M 93.188864 50.458404 
L 93.188864 48.686754 
" clip-path="url(#p66de288346)" style="fill: none; stroke: #ff7f0e; stroke-width: 1.5"/>
    <path d="M 96.2325 52.495773 
L 96.2325 50.734463 
" clip-path="url(#p66de288346)" style="fill: none; stroke: #ff7f0e; stroke-width: 1.5"/>
    <path d="M 99.276136 55.511734 
L 99.276136 53.765843 
" clip-path="url(#p66de288346)" style="fill: none; stroke: #ff7f0e; stroke-width: 1.5"/>
    <path d="M 102.319773 57.424477 
L 102.319773 55.688435 
" clip-path="url(#p66de288346)" style="fill: none; stroke: #ff7f0e; stroke-width: 1.5"/>
    <path d="M 105.363409 61.881501 
L 105.363409 60.168632 
" clip-path="url(#p66de288346)" style="fill: none; stroke: #ff7f0e; stroke-width: 1.5"/>
    <path d="M 108.407045 64.421311 
L 108.407045 62.721789 
" clip-path="url(#p66de288346)" style="fill: none; stroke: #ff7f0e; stroke-width: 1.5"/>
    <path d="M 111.450682 65.47992 
L 111.450682 63.785993 
" clip-path="url(#p66de288346)" style="fill: none; stroke: #ff7f0e; stroke-width: 1.5"/>
    <path d="M 114.494318 69.718712 
L 114.494318 68.047373 
" clip-path="url(#p66de288346)" style="fill: none; stroke: #ff7f0e; stroke-width: 1.5"/>
    <path d="M 117.537955 70.759483 
L 117.537955 69.093738 
" clip-path="url(#p66de288346)" style="fill: none; stroke: #ff7f0e; stroke-width: 1.5"/>
    <path d="M 120.581591 72.774282 
L 120.581591 71.119419 
" clip-path="url(#p66de288346)" style="fill: none; stroke: #ff7f0e; stroke-width: 1.5"/>
    <path d="M 123.625227 76.318995 
L 123.625227 74.683454 
" clip-path="url(#p66de288346)" style="fill: none; stroke: #ff7f0e; stroke-width: 1.5"/>
    <path d="M 126.668864 78.951881 
L 126.668864 77.330842 
" clip-path="url(#p66de288346)" style="fill: none; stroke: #ff7f0e; stroke-width: 1.5"/>
    <path d="M 129.7125 81.99385 
L 129.7125 80.389731 
" clip-path="url(#p66de288346)" style="fill: none; stroke: #ff7f0e; stroke-width: 1.5"/>
    <path d="M 132.756136 83.443646 
L 132.756136 81.847653 
" clip-path="url(#p66de288346)" style="fill: none; stroke: #ff7f0e; stroke-width: 1.5"/>
    <path d="M 135.799773 85.702795 
L 135.799773 84.11955 
" clip-path="url(#p66de288346)" style="fill: none; stroke: #ff7f0e; stroke-width: 1.5"/>
    <path d="M 138.843409 88.68675 
L 138.843409 87.120502 
" clip-path="url(#p66de288346)" style="fill: none; stroke: #ff7f0e; stroke-width: 1.5"/>
    <path d="M 141.887045 89.095869 
L 141.887045 87.531966 
" clip-path="url(#p66de288346)" style="fill: none; stroke: #ff7f0e; stroke-width: 1.5"/>
    <path d="M 144.930682 91.408248 
L 144.930682 89.857666 
" clip-path="url(#p66de288346)" style="fill: none; stroke: #ff7f0e; stroke-width: 1.5"/>
    <path d="M 147.974318 93.062453 
L 147.974318 91.521471 
" clip-path="url(#p66de288346)" style="fill: none; stroke: #ff7f0e; stroke-width: 1.5"/>
    <path d="M 151.017955 95.730461 
L 151.017955 94.205092 
" clip-path="url(#p66de288346)" style="fill: none; stroke: #ff7f0e; stroke-width: 1.5"/>
    <path d="M 154.061591 99.58559 
L 154.061591 98.083068 
" clip-path="url(#p66de288346)" style="fill: none; stroke: #ff7f0e; stroke-width: 1.5"/>
    <path d="M 157.105227 100.385941 
L 157.105227 98.888206 
" clip-path="url(#p66de288346)" style="fill: none; stroke: #ff7f0e; stroke-width: 1.5"/>
    <path d="M 160.148864 102.782501 
L 160.148864 101.299193 
" clip-path="url(#p66de288346)" style="fill: none; stroke: #ff7f0e; stroke-width: 1.5"/>
    <path d="M 163.1925 103.680637 
L 163.1925 102.202773 
" clip-path="url(#p66de288346)" style="fill: none; stroke: #ff7f0e; stroke-width: 1.5"/>
    <path d="M 166.236136 105.396849 
L 166.236136 103.929443 
" clip-path="url(#p66de288346)" style="fill: none; stroke: #ff7f0e; stroke-width: 1.5"/>
    <path d="M 169.279773 108.295649 
L 169.279773 106.84608 
" clip-path="url(#p66de288346)" style="fill: none; stroke: #ff7f0e; stroke-width: 1.5"/>
    <path d="M 172.323409 108.575742 
L 172.323409 107.127908 
" clip-path="url(#p66de288346)" style="fill: none; stroke: #ff7f0e; stroke-width: 1.5"/>
    <path d="M 175.367045 111.26547 
L 175.367045 109.834406 
" clip-path="url(#p66de288346)" style="fill: none; stroke: #ff7f0e; stroke-width: 1.5"/>
    <path d="M 178.410682 113.270475 
L 178.410682 111.852042 
" clip-path="url(#p66de288346)" style="fill: none; stroke: #ff7f0e; stroke-width: 1.5"/>
    <path d="M 181.454318 115.266533 
L 181.454318 113.860788 
" clip-path="url(#p66de288346)" style="fill: none; stroke: #ff7f0e; stroke-width: 1.5"/>
    <path d="M 184.497955 116.737976 
L 184.497955 115.34166 
" clip-path="url(#p66de288346)" style="fill: none; stroke: #ff7f0e; stroke-width: 1.5"/>
    <path d="M 187.541591 118.791721 
L 187.541591 117.40867 
" clip-path="url(#p66de288346)" style="fill: none; stroke: #ff7f0e; stroke-width: 1.5"/>
    <path d="M 190.585227 119.934143 
L 190.585227 118.558529 
" clip-path="url(#p66de288346)" style="fill: none; stroke: #ff7f0e; stroke-width: 1.5"/>
    <path d="M 193.628864 122.841229 
L 193.628864 121.48472 
" clip-path="url(#p66de288346)" style="fill: none; stroke: #ff7f0e; stroke-width: 1.5"/>
    <path d="M 196.6725 123.032362 
L 196.6725 121.677119 
" clip-path="url(#p66de288346)" style="fill: none; stroke: #ff7f0e; stroke-width: 1.5"/>
    <path d="M 199.716136 125.263695 
L 199.716136 123.923317 
" clip-path="url(#p66de288346)" style="fill: none; stroke: #ff7f0e; stroke-width: 1.5"/>
    <path d="M 202.759773 127.419385 
L 202.759773 126.093527 
" clip-path="url(#p66de288346)" style="fill: none; stroke: #ff7f0e; stroke-width: 1.5"/>
    <path d="M 205.803409 128.317196 
L 205.803409 126.997432 
" clip-path="url(#p66de288346)" style="fill: none; stroke: #ff7f0e; stroke-width: 1.5"/>
    <path d="M 208.847045 130.023885 
L 208.847045 128.715786 
" clip-path="url(#p66de288346)" style="fill: none; stroke: #ff7f0e; stroke-width: 1.5"/>
    <path d="M 211.890682 132.206059 
L 211.890682 130.913028 
" clip-path="url(#p66de288346)" style="fill: none; stroke: #ff7f0e; stroke-width: 1.5"/>
    <path d="M 214.934318 132.068286 
L 214.934318 130.7743 
" clip-path="url(#p66de288346)" style="fill: none; stroke: #ff7f0e; stroke-width: 1.5"/>
    <path d="M 217.977955 133.868184 
L 217.977955 132.586752 
" clip-path="url(#p66de288346)" style="fill: none; stroke: #ff7f0e; stroke-width: 1.5"/>
    <path d="M 221.021591 134.930317 
L 221.021591 133.656351 
" clip-path="url(#p66de288346)" style="fill: none; stroke: #ff7f0e; stroke-width: 1.5"/>
    <path d="M 224.065227 137.330033 
L 224.065227 136.073102 
" clip-path="url(#p66de288346)" style="fill: none; stroke: #ff7f0e; stroke-width: 1.5"/>
    <path d="M 227.108864 139.765181 
L 227.108864 138.525776 
" clip-path="url(#p66de288346)" style="fill: none; stroke: #ff7f0e; stroke-width: 1.5"/>
    <path d="M 230.1525 139.916262 
L 230.1525 138.677953 
" clip-path="url(#p66de288346)" style="fill: none; stroke: #ff7f0e; stroke-width: 1.5"/>
    <path d="M 233.196136 140.20065 
L 233.196136 138.964406 
" clip-path="url(#p66de288346)" style="fill: none; stroke: #ff7f0e; stroke-width: 1.5"/>
    <path d="M 236.239773 142.018024 
L 236.239773 140.795059 
" clip-path="url(#p66de288346)" style="fill: none; stroke: #ff7f0e; stroke-width: 1.5"/>
    <path d="M 239.283409 143.590949 
L 239.283409 142.379595 
" clip-path="url(#p66de288346)" style="fill: none; stroke: #ff7f0e; stroke-width: 1.5"/>
    <path d="M 242.327045 146.518926 
L 242.327045 145.329491 
" clip-path="url(#p66de288346)" style="fill: none; stroke: #ff7f0e; stroke-width: 1.5"/>
    <path d="M 245.370682 147.052072 
L 245.370682 145.866672 
" clip-path="url(#p66de288346)" style="fill: none; stroke: #ff7f0e; stroke-width: 1.5"/>
    <path d="M 248.414318 146.661099 
L 248.414318 145.472739 
" clip-path="url(#p66de288346)" style="fill: none; stroke: #ff7f0e; stroke-width: 1.5"/>
    <path d="M 251.457955 149.086846 
L 251.457955 147.916975 
" clip-path="url(#p66de288346)" style="fill: none; stroke: #ff7f0e; stroke-width: 1.5"/>
    <path d="M 254.501591 150.299664 
L 254.501591 149.139148 
" clip-path="url(#p66de288346)" style="fill: none; stroke: #ff7f0e; stroke-width: 1.5"/>
    <path d="M 257.545227 151.263671 
L 257.545227 150.110647 
" clip-path="url(#p66de288346)" style="fill: none; stroke: #ff7f0e; stroke-width: 1.5"/>
    <path d="M 260.588864 152.427555 
L 260.588864 151.283641 
" clip-path="url(#p66de288346)" style="fill: none; stroke: #ff7f0e; stroke-width: 1.5"/>
    <path d="M 263.6325 153.027252 
L 263.6325 151.88806 
" clip-path="url(#p66de288346)" style="fill: none; stroke: #ff7f0e; stroke-width: 1.5"/>
    <path d="M 266.676136 154.173312 
L 266.676136 153.043201 
" clip-path="url(#p66de288346)" style="fill: none; stroke: #ff7f0e; stroke-width: 1.5"/>
    <path d="M 269.719773 156.016703 
L 269.719773 154.901354 
" clip-path="url(#p66de288346)" style="fill: none; stroke: #ff7f0e; stroke-width: 1.5"/>
    <path d="M 272.763409 156.38537 
L 272.763409 155.272996 
" clip-path="url(#p66de288346)" style="fill: none; stroke: #ff7f0e; stroke-width: 1.5"/>
    <path d="M 275.807045 158.16646 
L 275.807045 157.068578 
" clip-path="url(#p66de288346)" style="fill: none; stroke: #ff7f0e; stroke-width: 1.5"/>
    <path d="M 278.850682 158.628373 
L 278.850682 157.534281 
" clip-path="url(#p66de288346)" style="fill: none; stroke: #ff7f0e; stroke-width: 1.5"/>
    <path d="M 281.894318 159.534413 
L 281.894318 158.447794 
" clip-path="url(#p66de288346)" style="fill: none; stroke: #ff7f0e; stroke-width: 1.5"/>
    <path d="M 284.937955 161.000012 
L 284.937955 159.925592 
" clip-path="url(#p66de288346)" style="fill: none; stroke: #ff7f0e; stroke-width: 1.5"/>
    <path d="M 287.981591 162.216849 
L 287.981591 161.152665 
" clip-path="url(#p66de288346)" style="fill: none; stroke: #ff7f0e; stroke-width: 1.5"/>
    <path d="M 291.025227 163.504689 
L 291.025227 162.451446 
" clip-path="url(#p66de288346)" style="fill: none; stroke: #ff7f0e; stroke-width: 1.5"/>
    <path d="M 294.068864 164.059774 
L 294.068864 163.011283 
" clip-path="url(#p66de288346)" style="fill: none; stroke: #ff7f0e; stroke-width: 1.5"/>
    <path d="M 297.1125 164.8724 
L 297.1125 163.830905 
" clip-path="url(#p66de288346)" style="fill: none; stroke: #ff7f0e; stroke-width: 1.5"/>
    <path d="M 300.156136 166.18232 
L 300.156136 165.152202 
" clip-path="url(#p66de288346)" style="fill: none; stroke: #ff7f0e; stroke-width: 1.5"/>
    <path d="M 303.199773 167.185809 
L 303.199773 166.164494 
" clip-path="url(#p66de288346)" style="fill: none; stroke: #ff7f0e; stroke-width: 1.5"/>
    <path d="M 306.243409 168.1049 
L 306.243409 167.091715 
" clip-path="url(#p66de288346)" style="fill: none; stroke: #ff7f0e; stroke-width: 1.5"/>
    <path d="M 309.287045 170.076171 
L 309.287045 169.080649 
" clip-path="url(#p66de288346)" style="fill: none; stroke: #ff7f0e; stroke-width: 1.5"/>
    <path d="M 312.330682 170.156084 
L 312.330682 169.161285 
" clip-path="url(#p66de288346)" style="fill: none; stroke: #ff7f0e; stroke-width: 1.5"/>
    <path d="M 315.374318 170.027335 
L 315.374318 169.031372 
" clip-path="url(#p66de288346)" style="fill: none; stroke: #ff7f0e; stroke-width: 1.5"/>
    <path d="M 318.417955 171.141657 
L 318.417955 170.155815 
" clip-path="url(#p66de288346)" style="fill: none; stroke: #ff7f0e; stroke-width: 1.5"/>
    <path d="M 321.461591 172.202655 
L 321.461591 171.226549 
" clip-path="url(#p66de288346)" style="fill: none; stroke: #ff7f0e; stroke-width: 1.5"/>
    <path d="M 324.505227 172.908481 
L 324.505227 171.938906 
" clip-path="url(#p66de288346)" style="fill: none; stroke: #ff7f0e; stroke-width: 1.5"/>
    <path d="M 327.548864 174.1869 
L 327.548864 173.229268 
" clip-path="url(#p66de288346)" style="fill: none; stroke: #ff7f0e; stroke-width: 1.5"/>
    <path d="M 330.5925 174.941487 
L 330.5925 173.990976 
" clip-path="url(#p66de288346)" style="fill: none; stroke: #ff7f0e; stroke-width: 1.5"/>
    <path d="M 333.636136 175.123471 
L 333.636136 174.174687 
" clip-path="url(#p66de288346)" style="fill: none; stroke: #ff7f0e; stroke-width: 1.5"/>
    <path d="M 336.679773 176.108824 
L 336.679773 175.169437 
" clip-path="url(#p66de288346)" style="fill: none; stroke: #ff7f0e; stroke-width: 1.5"/>
    <path d="M 339.723409 177.165139 
L 339.723409 176.235934 
" clip-path="url(#p66de288346)" style="fill: none; stroke: #ff7f0e; stroke-width: 1.5"/>
    <path d="M 342.767045 177.47581 
L 342.767045 176.54962 
" clip-path="url(#p66de288346)" style="fill: none; stroke: #ff7f0e; stroke-width: 1.5"/>
    <path d="M 345.810682 179.113403 
L 345.810682 178.203279 
" clip-path="url(#p66de288346)" style="fill: none; stroke: #ff7f0e; stroke-width: 1.5"/>
    <path d="M 348.854318 178.776133 
L 348.854318 177.862676 
" clip-path="url(#p66de288346)" style="fill: none; stroke: #ff7f0e; stroke-width: 1.5"/>
    <path d="M 351.897955 179.90774 
L 351.897955 179.005511 
" clip-path="url(#p66de288346)" style="fill: none; stroke: #ff7f0e; stroke-width: 1.5"/>
    <path d="M 354.941591 180.724228 
L 354.941591 179.830189 
" clip-path="url(#p66de288346)" style="fill: none; stroke: #ff7f0e; stroke-width: 1.5"/>
    <path d="M 357.985227 181.775844 
L 357.985227 180.892467 
" clip-path="url(#p66de288346)" style="fill: none; stroke: #ff7f0e; stroke-width: 1.5"/>
    <path d="M 361.028864 182.161864 
L 361.028864 181.282433 
" clip-path="url(#p66de288346)" style="fill: none; stroke: #ff7f0e; stroke-width: 1.5"/>
    <path d="M 364.0725 182.7919 
L 364.0725 181.918949 
" clip-path="url(#p66de288346)" style="fill: none; stroke: #ff7f0e; stroke-width: 1.5"/>
   </g>
   <g id="LineCollection_5"/>
   <g id="LineCollection_6"/>
   <g id="line2d_15"/>
   <g id="line2d_16"/>
   <g id="line2d_17"/>
   <g id="line2d_18"/>
   <g id="patch_5">
    <path d="M 46.0125 224.64 
L 46.0125 7.2 
" style="fill: none; stroke: #000000; stroke-width: 0.8; stroke-linejoin: miter; stroke-linecap: square"/>
   </g>
   <g id="patch_6">
    <path d="M 380.8125 224.64 
L 380.8125 7.2 
" style="fill: none; stroke: #000000; stroke-width: 0.8; stroke-linejoin: miter; stroke-linecap: square"/>
   </g>
   <g id="patch_7">
    <path d="M 46.0125 224.64 
L 380.8125 224.64 
" style="fill: none; stroke: #000000; stroke-width: 0.8; stroke-linejoin: miter; stroke-linecap: square"/>
   </g>
   <g id="patch_8">
    <path d="M 46.0125 7.2 
L 380.8125 7.2 
" style="fill: none; stroke: #000000; stroke-width: 0.8; stroke-linejoin: miter; stroke-linecap: square"/>
   </g>
   <g id="legend_1">
    <g id="patch_9">
     <path d="M 303.471875 44.55625 
L 373.8125 44.55625 
Q 375.8125 44.55625 375.8125 42.55625 
L 375.8125 14.2 
Q 375.8125 12.2 373.8125 12.2 
L 303.471875 12.2 
Q 301.471875 12.2 301.471875 14.2 
L 301.471875 42.55625 
Q 301.471875 44.55625 303.471875 44.55625 
z
" style="fill: #ffffff; opacity: 0.8; stroke: #cccccc; stroke-linejoin: miter"/>
    </g>
    <g id="LineCollection_7">
     <path d="M 310.471875 20.298437 
L 320.471875 20.298437 
" style="fill: none; stroke: #1f77b4; stroke-width: 1.5"/>
    </g>
    <g id="LineCollection_8">
     <path d="M 315.471875 25.298437 
L 315.471875 15.298437 
" style="fill: none; stroke: #1f77b4; stroke-width: 1.5"/>
    </g>
    <g id="line2d_19">
     <path d="M 305.471875 20.298437 
L 325.471875 20.298437 
" style="fill: none; stroke: #1f77b4; stroke-width: 1.5; stroke-linecap: square"/>
    </g>
    <g id="line2d_20"/>
    <g id="text_16">
     <!-- forward -->
     <g transform="translate(333.471875 23.798437)scale(0.1 -0.1)">
      <defs>
       <path id="DejaVuSans-66" d="M 2375 4863 
L 2375 4384 
L 1825 4384 
Q 1516 4384 1395 4259 
Q 1275 4134 1275 3809 
L 1275 3500 
L 2222 3500 
L 2222 3053 
L 1275 3053 
L 1275 0 
L 697 0 
L 697 3053 
L 147 3053 
L 147 3500 
L 697 3500 
L 697 3744 
Q 697 4328 969 4595 
Q 1241 4863 1831 4863 
L 2375 4863 
z
" transform="scale(0.015625)"/>
       <path id="DejaVuSans-6f" d="M 1959 3097 
Q 1497 3097 1228 2736 
Q 959 2375 959 1747 
Q 959 1119 1226 758 
Q 1494 397 1959 397 
Q 2419 397 2687 759 
Q 2956 1122 2956 1747 
Q 2956 2369 2687 2733 
Q 2419 3097 1959 3097 
z
M 1959 3584 
Q 2709 3584 3137 3096 
Q 3566 2609 3566 1747 
Q 3566 888 3137 398 
Q 2709 -91 1959 -91 
Q 1206 -91 779 398 
Q 353 888 353 1747 
Q 353 2609 779 3096 
Q 1206 3584 1959 3584 
z
" transform="scale(0.015625)"/>
       <path id="DejaVuSans-72" d="M 2631 2963 
Q 2534 3019 2420 3045 
Q 2306 3072 2169 3072 
Q 1681 3072 1420 2755 
Q 1159 2438 1159 1844 
L 1159 0 
L 581 0 
L 581 3500 
L 1159 3500 
L 1159 2956 
Q 1341 3275 1631 3429 
Q 1922 3584 2338 3584 
Q 2397 3584 2469 3576 
Q 2541 3569 2628 3553 
L 2631 2963 
z
" transform="scale(0.015625)"/>
       <path id="DejaVuSans-77" d="M 269 3500 
L 844 3500 
L 1563 769 
L 2278 3500 
L 2956 3500 
L 3675 769 
L 4391 3500 
L 4966 3500 
L 4050 0 
L 3372 0 
L 2619 2869 
L 1863 0 
L 1184 0 
L 269 3500 
z
" transform="scale(0.015625)"/>
       <path id="DejaVuSans-61" d="M 2194 1759 
Q 1497 1759 1228 1600 
Q 959 1441 959 1056 
Q 959 750 1161 570 
Q 1363 391 1709 391 
Q 2188 391 2477 730 
Q 2766 1069 2766 1631 
L 2766 1759 
L 2194 1759 
z
M 3341 1997 
L 3341 0 
L 2766 0 
L 2766 531 
Q 2569 213 2275 61 
Q 1981 -91 1556 -91 
Q 1019 -91 701 211 
Q 384 513 384 1019 
Q 384 1609 779 1909 
Q 1175 2209 1959 2209 
L 2766 2209 
L 2766 2266 
Q 2766 2663 2505 2880 
Q 2244 3097 1772 3097 
Q 1472 3097 1187 3025 
Q 903 2953 641 2809 
L 641 3341 
Q 956 3463 1253 3523 
Q 1550 3584 1831 3584 
Q 2591 3584 2966 3190 
Q 3341 2797 3341 1997 
z
" transform="scale(0.015625)"/>
       <path id="DejaVuSans-64" d="M 2906 2969 
L 2906 4863 
L 3481 4863 
L 3481 0 
L 2906 0 
L 2906 525 
Q 2725 213 2448 61 
Q 2172 -91 1784 -91 
Q 1150 -91 751 415 
Q 353 922 353 1747 
Q 353 2572 751 3078 
Q 1150 3584 1784 3584 
Q 2172 3584 2448 3432 
Q 2725 3281 2906 2969 
z
M 947 1747 
Q 947 1113 1208 752 
Q 1469 391 1925 391 
Q 2381 391 2643 752 
Q 2906 1113 2906 1747 
Q 2906 2381 2643 2742 
Q 2381 3103 1925 3103 
Q 1469 3103 1208 2742 
Q 947 2381 947 1747 
z
" transform="scale(0.015625)"/>
      </defs>
      <use xlink:href="#DejaVuSans-66"/>
      <use xlink:href="#DejaVuSans-6f" x="35.205078"/>
      <use xlink:href="#DejaVuSans-72" x="96.386719"/>
      <use xlink:href="#DejaVuSans-77" x="137.5"/>
      <use xlink:href="#DejaVuSans-61" x="219.287109"/>
      <use xlink:href="#DejaVuSans-72" x="280.566406"/>
      <use xlink:href="#DejaVuSans-64" x="319.929688"/>
     </g>
    </g>
    <g id="LineCollection_9">
     <path d="M 310.471875 34.976562 
L 320.471875 34.976562 
" style="fill: none; stroke: #ff7f0e; stroke-width: 1.5"/>
    </g>
    <g id="LineCollection_10">
     <path d="M 315.471875 39.976562 
L 315.471875 29.976562 
" style="fill: none; stroke: #ff7f0e; stroke-width: 1.5"/>
    </g>
    <g id="line2d_21">
     <path d="M 305.471875 34.976562 
L 325.471875 34.976562 
" style="fill: none; stroke: #ff7f0e; stroke-width: 1.5; stroke-linecap: square"/>
    </g>
    <g id="line2d_22"/>
    <g id="text_17">
     <!-- central -->
     <g transform="translate(333.471875 38.476562)scale(0.1 -0.1)">
      <defs>
       <path id="DejaVuSans-63" d="M 3122 3366 
L 3122 2828 
Q 2878 2963 2633 3030 
Q 2388 3097 2138 3097 
Q 1578 3097 1268 2742 
Q 959 2388 959 1747 
Q 959 1106 1268 751 
Q 1578 397 2138 397 
Q 2388 397 2633 464 
Q 2878 531 3122 666 
L 3122 134 
Q 2881 22 2623 -34 
Q 2366 -91 2075 -91 
Q 1284 -91 818 406 
Q 353 903 353 1747 
Q 353 2603 823 3093 
Q 1294 3584 2113 3584 
Q 2378 3584 2631 3529 
Q 2884 3475 3122 3366 
z
" transform="scale(0.015625)"/>
       <path id="DejaVuSans-65" d="M 3597 1894 
L 3597 1613 
L 953 1613 
Q 991 1019 1311 708 
Q 1631 397 2203 397 
Q 2534 397 2845 478 
Q 3156 559 3463 722 
L 3463 178 
Q 3153 47 2828 -22 
Q 2503 -91 2169 -91 
Q 1331 -91 842 396 
Q 353 884 353 1716 
Q 353 2575 817 3079 
Q 1281 3584 2069 3584 
Q 2775 3584 3186 3129 
Q 3597 2675 3597 1894 
z
M 3022 2063 
Q 3016 2534 2758 2815 
Q 2500 3097 2075 3097 
Q 1594 3097 1305 2825 
Q 1016 2553 972 2059 
L 3022 2063 
z
" transform="scale(0.015625)"/>
       <path id="DejaVuSans-6e" d="M 3513 2113 
L 3513 0 
L 2938 0 
L 2938 2094 
Q 2938 2591 2744 2837 
Q 2550 3084 2163 3084 
Q 1697 3084 1428 2787 
Q 1159 2491 1159 1978 
L 1159 0 
L 581 0 
L 581 3500 
L 1159 3500 
L 1159 2956 
Q 1366 3272 1645 3428 
Q 1925 3584 2291 3584 
Q 2894 3584 3203 3211 
Q 3513 2838 3513 2113 
z
" transform="scale(0.015625)"/>
       <path id="DejaVuSans-6c" d="M 603 4863 
L 1178 4863 
L 1178 0 
L 603 0 
L 603 4863 
z
" transform="scale(0.015625)"/>
      </defs>
      <use xlink:href="#DejaVuSans-63"/>
      <use xlink:href="#DejaVuSans-65" x="54.980469"/>
      <use xlink:href="#DejaVuSans-6e" x="116.503906"/>
      <use xlink:href="#DejaVuSans-74" x="179.882812"/>
      <use xlink:href="#DejaVuSans-72" x="219.091797"/>
      <use xlink:href="#DejaVuSans-61" x="260.205078"/>
      <use xlink:href="#DejaVuSans-6c" x="321.484375"/>
     </g>
    </g>
   </g>
  </g>
 </g>
 <defs>
  <clipPath id="p66de288346">
   <rect x="46.0125" y="7.2" width="334.8" height="217.44"/>
  </clipPath>
 </defs>
</svg>
